<?xml version="1.0" encoding="utf-8"?>
<!-- Generator: Adobe Illustrator 16.0.0, SVG Export Plug-In . SVG Version: 6.00 Build 0)  -->
<svg version="1.2" baseProfile="tiny" id="Layer_1" xmlns="http://www.w3.org/2000/svg" xmlns:xlink="http://www.w3.org/1999/xlink"
	 x="0px" y="0px" width="100px" height="100px" viewBox="0 0 100 100" xml:space="preserve">
<path fill-rule="evenodd" fill="#00A89C" d="M-127.202,57.354c-1.956,0-3.911,0-5.866,0c-0.165-0.181-0.386-0.102-0.584-0.125
	c-1.023-0.118-2.06-0.113-3.066-0.364c0.541-1.426,1.701-1.969,3.097-2.159c1.136-0.155,2.28-0.146,3.424-0.154
	c2.431-0.019,4.868,0.114,7.29-0.193c2.366-0.303,4.421-1.368,6.368-2.676c0.119-0.08,0.217-0.194,0.316-0.3
	c0.557-0.591,0.555-0.758,0.009-1.343c-1.874-2.005-3.018-4.415-3.753-7.018c-0.576-2.035-1.342-4.014-1.803-6.083
	c-0.067-0.298-0.234-0.576-0.362-0.859c-0.07-0.154-0.164-0.303-0.329-0.359c-1.21-0.415-2.349-0.988-3.699-1.016
	c-2.03-0.043-4.017,0.265-6.014,0.503c-1.408,0.167-2.834,0.024-4.229,0.279c-2.193,0.402-4.26,1.253-6.385,1.892
	c-1.701,0.511-3.137,1.603-4.738,2.342c-0.33,0.151-0.659,0.211-1.015,0.248c-2.004,0.203-3.814-0.625-5.691-1.072
	c-0.522-0.125-1.246,0.09-1.54-0.407c-0.266-0.448-0.188-1.092-0.391-1.617c-0.145-0.372-0.121-0.712,0.022-1.082
	c0.377-0.973,1.079-1.713,1.735-2.482c0.515-0.604,1.037-1.196,1.325-1.945c0.644-1.674-0.097-3.214-1.805-3.759
	c-0.275-0.088-0.562-0.148-0.846-0.203c-0.348-0.066-0.486-0.23-0.413-0.604c0.408-2.086-0.168-3.96-1.361-5.647
	c-0.486-0.689-0.77-1.411-0.878-2.224c-0.254-1.902-1.311-3.132-3.109-3.757c-0.213-0.074-0.492-0.131-0.605-0.292
	c-0.785-1.108-1.869-1.945-2.702-3.004c-0.836-1.063-2.119-1.506-3.327-1.024c-1.917,0.767-3.788,1.622-5.777,2.241
	c-1.879,0.587-3.618,1.629-5.418,2.472c-0.104-0.717-0.191-1.435-0.317-2.146c-0.174-0.991-0.089-2.012-0.359-2.991
	c0-1.998,0-3.994,0-5.991c0.18-0.164,0.105-0.386,0.125-0.584c0.135-1.396,0.208-2.8,0.51-4.176
	c1.767-0.183,3.292-1.081,4.925-1.661c0.077-0.027,0.145-0.082,0.213-0.129c1.528-1.08,2.908-2.354,4.28-3.606
	c1.307-1.192,2.579-2.47,3.619-3.936c0.374-0.527,0.893-0.82,1.557-0.926c1.103-0.176,2.08-0.66,2.986-1.324
	c1.209-0.885,2.143-2.026,3.049-3.188c0.501-0.642,1.355-0.984,1.646-1.762c0.432-1.154,1.33-2.104,1.591-3.284
	c0.258-1.166,1.004-1.68,1.928-2.138c0.241-0.12,0.476-0.252,0.717-0.373c0.978-0.492,1.809-1.154,2.521-1.996
	c0.633-0.75,1.072-1.657,1.724-2.354c1.239-1.328,1.574-2.882,1.554-4.586c-0.014-1.15,0.149-2.273,0.339-3.401
	c0.273-1.614,0.692-3.21,0.658-4.865c3.578-1.264,7.269-2.005,11.037-2.399c0.693-0.072,1.4-0.03,2.077-0.243
	c0.666,0,1.332,0,1.997,0c0.116,0.139,0.027,0.287-0.008,0.413c-0.417,1.484-0.167,2.838,0.767,4.064
	c0.221,0.291,0.278,0.635,0.384,0.973c0.668,2.145,1.629,4.05,3.979,4.83c1.28,0.425,2.396,1.21,3.613,1.782
	c1.129,0.529,2.199,1.124,3.438,1.391c1.538,0.332,2.397,1.592,3.319,2.694c1.556,1.858,2.233,4.189,3.244,6.339
	c0.053,0.111,0.094,0.234,0.109,0.355c0.095,0.771,0.376,1.486,0.663,2.199c0.53,1.318,1.79,2.061,3.197,1.816
	c1.683-0.292,2.977-1.229,3.968-2.589c0.514-0.704,0.975-1.445,1.467-2.165c0.215-0.315,0.48-0.635,0.876-0.637
	c1.641-0.01,3.284-0.14,4.92,0.075c2.01,0.263,3.986,0.39,5.712-0.998c0.32-0.258,0.707-0.433,1.063-0.646
	c1.438,1.756,2.627,3.679,3.734,5.652c1.924,3.433,3.452,7.032,4.471,10.84c-0.572,0.357-0.831,0.924-0.97,1.54
	c-0.146,0.646-0.178,1.32-0.339,1.961c-0.742,2.933-1.383,5.888-1.965,8.856c-0.153,0.782-0.253,1.551-0.116,2.348
	c0.116,0.687,0.051,1.376-0.237,2.018c-0.406,0.906-0.491,1.862-0.324,2.811c0.303,1.731,0.175,3.478,0.172,5.209
	c-0.003,1.289,0.007,2.564,0.164,3.845c0.088,0.72,0.296,1.466,0.075,2.166c-0.534,1.702-0.653,3.46-0.851,5.212
	c-0.069,0.605,0.02,0.803,0.619,0.602c-0.176,0.352-0.339,0.712-0.531,1.055c-5.304,9.463-12.844,16.543-22.657,21.177
	c-5.211,2.46-10.702,3.925-16.445,4.452C-126.022,57.191-126.635,57.115-127.202,57.354z M-145.222-5.038
	c-0.603,0-1.208-0.031-1.809,0.006c-1.185,0.072-2.09,0.868-2.278,1.953c-0.189,1.093,0.349,2.061,1.429,2.572
	c0.164,0.078,0.377,0.093,0.454,0.295c0.205,0.542,0.618,0.933,0.971,1.366c0.324,0.397,0.517,0.828,0.568,1.351
	c0.087,0.886,0.431,1.671,0.987,2.384c0.942,1.21,1.618,2.598,2.525,3.844c0.643,0.885,1.069,1.963,1.692,2.892
	c0.823,1.232,1.699,2.442,3.257,2.831c1.151,0.288,2.245,0.729,3.348,1.156c3.983,1.543,8.063,2.592,12.393,2.256
	c0.614-0.048,1.215-0.132,1.675-0.569c0.258-0.245,0.502-0.248,0.789-0.137c0.25,0.098,0.49,0.226,0.746,0.31
	c1.492,0.493,3.009,0.887,4.562,0.355c0.521-0.177,1.012-0.316,1.562-0.312c0.991,0.01,1.892-0.253,2.592-1.01
	c0.188-0.203,0.437-0.311,0.693-0.401c1.281-0.455,2.076-1.383,2.604-2.606c0.441-1.018,0.277-2.083,0.357-3.132
	c0.106-1.408-0.346-2.616-1.143-3.73c-0.478-0.668-0.78-1.408-0.98-2.202c-0.137-0.543-0.204-1.068-0.171-1.643
	c0.089-1.507-1.184-2.761-2.792-2.844c-0.598-0.032-1.283,0.066-1.752-0.278c-0.858-0.628-1.426-1.556-1.786-2.547
	c-0.39-1.075-1.057-1.808-2.166-2.02c-1.334-0.255-2.7-0.279-4.03-0.012c-1.582,0.318-3.14,0.443-4.721,0.033
	c-0.402-0.104-0.825-0.07-1.238,0.02c-0.445,0.096-0.889,0.203-1.354,0.178c-1.1-0.061-2.15,0.139-3.145,0.619
	c-0.19,0.092-0.391,0.12-0.602,0.131c-1.586,0.086-3.167-0.053-4.716-0.333C-139.523-4.774-142.394-4.647-145.222-5.038z"/>
<g>
	<path fill-rule="evenodd" fill="#01A79B" d="M69.47,5.964c-0.104,0.327-0.23,0.61-0.604,0.752
		c-0.734,0.277-1.161,1.539-0.718,2.222c0.242,0.371,0.357,0.598-0.021,0.956c-0.322,0.307-0.021,0.733,0.03,1.076
		c0.066,0.467-0.087,0.67-0.467,0.822c-0.671,0.269-1.114,0.558-1.187,1.472c-0.044,0.571-0.315,0.948,0.322,1.299
		c0.201,0.111,0.063,0.366-0.038,0.515c-0.28,0.418-0.46,0.824-0.513,1.366c-0.047,0.506-0.664,0.921-1.146,0.974
		c-1.005,0.111-0.942,0.992-1.254,1.546c-0.167,0.298,0.339,0.761,0.689,0.852c0.876,0.225,0.606,0.885,0.675,1.428
		c0.004,0.037-0.016,0.097-0.045,0.114c-0.839,0.527-0.775,1.829-1.872,2.142c-0.12,0.035-0.26,0.182-0.298,0.306
		c-0.222,0.742-0.773,1.219-1.385,1.6c-0.453,0.281-0.296,0.639-0.292,0.998c-0.006,0.083,0.008,0.14,0.11,0.099
		c0.029-0.036,0.06-0.072,0.087-0.107c0.403-0.009,0.706-0.125,0.667-0.61c0.764-0.609,1.79-0.84,2.479-1.49
		c0.709-0.668,1.663-1.15,2.025-2.142c0.11-0.302,0.354-0.396,0.589-0.533c0.23-0.135,0.451-0.242,0.565-0.548
		c0.214-0.568,0.344-1.022-0.296-1.446c-0.308-0.204-0.354-0.623,0.059-0.901c0.069-0.047,0.166-0.09,0.195-0.158
		c0.534-1.298,1.917-1.421,2.91-2.084c0.419-0.012,0.427-0.299,0.413-0.602c0.174-0.216,0.437-0.236,0.677-0.317
		c0.608-0.206,0.824-0.794,0.488-1.321c-0.083-0.128-0.218-0.304-0.085-0.39c0.621-0.403,0.577-1.188,1.028-1.682
		c0.196-0.217,0.425-0.305,0.718-0.34c0.643-0.075,1.234-0.262,1.205-1.076c-0.023-0.67,0.349-0.971,0.949-1.09
		c0.035,0.03,0.072,0.062,0.108,0.093c-0.372,0.324-0.189,0.763-0.195,1.138c-0.006,0.451-0.124,0.683-0.578,0.823
		c-0.439,0.136-0.841,0.394-1.256,0.602c-0.372,0.187-0.726,0.385-0.596,0.904c0.017,0.065-0.037,0.176-0.095,0.224
		c-0.394,0.333-0.427,0.647,0.007,0.979c0.074,0.057,0.157,0.191,0.14,0.27c-0.134,0.606-0.55,1.087-0.706,1.719
		c-0.131,0.524-0.737,1.002-1.455,1.065c-0.291,0.026-0.579,0.126-0.862,0.206c-0.31,0.086-0.64,0.154-0.593,0.6
		c0.008,0.073-0.047,0.159-0.093,0.227c-0.49,0.745-0.411,1.034,0.398,1.415c0.172,0.082,0.359,0.127,0.537,0.205
		c0.111,0.051,0.287,0.199,0.173,0.269c-0.492,0.302-0.305,1.115-0.999,1.257c-0.243,0.049-0.334,0.267-0.405,0.515
		c-0.148,0.534-0.399,1.02-0.989,1.227c-0.114,0.039-0.269,0.125-0.297,0.222c-0.272,0.924-1.008,1.437-1.721,1.978
		c-0.091,0.067-0.188,0.231-0.166,0.32c0.129,0.479-0.146,0.819-0.397,1.149c-0.253,0.334-0.209,0.551,0.145,0.764
		c0.303,0.184,0.566,0.405,0.287,0.813c-0.095,0.139-0.018,0.296,0.055,0.42c0.077,0.131,0.034,0.391,0.26,0.369
		c0.205-0.02,0.229-0.217,0.219-0.398c-0.004-0.062-0.016-0.155,0.018-0.185c0.572-0.479,0.591-0.861-0.146-1.202
		c-0.162-0.072,0.006-0.253,0.13-0.342c0.225-0.161,0.447-0.326,0.675-0.482c0.271-0.186,0.496-0.398,0.507-0.757
		c0.006-0.203,0.091-0.451,0.269-0.461c0.605-0.038,0.841-0.441,1.125-0.882c0.183-0.283,0.6-0.317,0.933-0.334
		c1.392-0.073,2.161-1.005,2.849-2.021c0.187-0.276,0.3-0.463,0.671-0.543c0.519-0.11,1.114-0.218,1.292-0.879
		c0.051-0.192,0.262-0.182,0.411-0.254c0.449-0.222,0.463-0.589,0.046-0.869c-0.646-0.433-0.643-0.613,0.039-0.99
		c0.222-0.124,0.368-0.304,0.394-0.544c0.046-0.45,0.283-0.602,0.725-0.599c1.143,0.007,1.787-0.693,2.266-1.622
		c0.291-0.569,0.912-0.478,1.377-0.514c0.66-0.05,1.165-0.539,0.981-1.198c-0.056-0.2-0.194-0.382,0.029-0.607
		c0.06,0.156,0.073,0.333,0.17,0.425c0.421,0.396,0.222,0.761-0.026,1.128c-0.08,0.123-0.264,0.232-0.264,0.348
		c0.006,1.245-1.126,1.014-1.791,1.391c-0.626,0.354-1.524,0.412-1.607,1.394c-0.006,0.091-0.092,0.2-0.172,0.256
		c-0.467,0.33-0.31,0.661-0.038,1.02c0.579,0.763,0.353,1.629-0.56,1.991c-0.45,0.179-0.795,0.393-0.997,0.853
		c-0.16,0.368-0.419,0.675-0.87,0.769c-0.154,0.033-0.327,0.148-0.417,0.278c-0.361,0.516-0.839,0.78-1.426,1.04
		c-0.473,0.208-0.835,0.863-1.047,1.396c-0.207,0.52-0.396,0.958-0.943,1.167c-0.144,0.054-0.296,0.13-0.288,0.301
		c0.008,0.176,0.18,0.227,0.326,0.253c0.592,0.109,0.771,0.367,0.528,0.978c-0.147,0.376,0.166,0.928-0.32,1.204
		c-0.382,0.219-0.829,0.313-1.284,0.334c-0.793,0.038-1.396,0.566-2.108,0.828c-0.307,0.113-0.514,0.442-0.202,0.93
		c0.04-0.465,0.206-0.709,0.632-0.635c0.055,0.009,0.146-0.021,0.174-0.063c0.592-0.894,1.527-0.653,2.369-0.715
		c1.358-0.099,1.906-0.498,2.029-1.545c0.03-0.239,0.131-0.4,0.424-0.32c0.396,0.105,0.688-0.164,1.006-0.31
		c0.202-0.093,0.221-0.271,0.11-0.482c-0.242-0.456-0.027-0.877,0.508-0.999c0.186-0.042,0.477,0.001,0.508-0.185
		c0.166-0.954,1.004-0.849,1.634-1.069c0.28-0.097,0.463-0.286,0.631-0.512c0.417-0.56,0.793-1.083,1.638-1.172
		c0.382-0.04,0.643-0.241,0.931,0.145c0.087,0.115,0.24,0.026,0.313-0.096c0.063-0.108,0.117-0.225,0.168-0.34
		c0.449-0.988,1.308-1.089,2.238-0.987c0.227,0.024,0.46,0.085,0.564-0.14c0.445-0.978,1.393-1.747,1.182-3.007
		c-0.113-0.661,0.25-0.971,0.913-0.84c0.386,0.078,0.949,0.052,0.872,0.761c-0.047,0.427,0.416,0.521,0.756,0.755
		c-0.443,0.205-0.785,0.415-0.878,0.884c-0.048,0.235-0.281,0.176-0.482,0.159c-0.781-0.067-1.098,0.246-1.462,0.904
		c-0.36,0.65-0.646,1.349-1.63,1.568c-0.756,0.168-1.744,0.422-2.033,1.45c-0.075,0.259-0.35,0.387-0.633,0.293
		c-0.447-0.148-0.814,0.204-1.244,0.162c-0.063-0.006-0.193,0.077-0.199,0.128c-0.064,0.62-0.6,0.948-0.881,1.432
		c-0.075,0.128-0.17,0.293-0.067,0.417c0.555,0.672-0.064,1.294-0.083,1.939c-0.012,0.458-0.399,0.707-0.836,0.722
		c-1.213,0.043-2.191,0.68-3.229,1.175c-0.475-0.047-0.658,0.196-0.641,0.636c-0.247,0.271-0.423,0.525-0.293,0.952
		c0.127,0.423-0.146,0.768-0.521,0.985c-0.32,0.186-0.603,0.387-0.655,0.793c-0.029,0.222-0.191,0.307-0.407,0.319
		c-0.213,0.012-0.426,0.043-0.562,0.237c-0.047,0.011-0.14-0.008-0.062,0.087c0.026-0.023,0.05-0.048,0.075-0.072
		c0.977,0.427,1.418-0.281,1.886-0.894c0.288-0.378,0.496-0.708,1.114-0.546c0.622,0.161,1.163-0.413,1.813-0.436
		c0.205-0.007,0.257-0.355,0.272-0.594c0.027-0.474,0.179-0.692,0.73-0.512c0.614,0.203,1.086-0.054,1.281-0.595
		c0.445-1.248,1.463-1.269,2.411-1.016c0.23,0.063,0.445,0.233,0.625-0.005c0.613-0.822,1.464-0.656,2.272-0.516
		c0.436,0.076,0.701-0.027,0.898-0.383c0.397-0.709,0.832-1.397,0.807-2.269c-0.01-0.38,0.288-0.522,0.668-0.496
		c0.397,0.029,0.72,0.131,0.744,0.601c0.01,0.196-0.113,0.51,0.201,0.49c0.313-0.019,0.131-0.321,0.143-0.512
		c0.021-0.335,0.182-0.558,0.563-0.532c0.02,0.001,0.048,0.019,0.062,0.011c0.615-0.396,1.305-0.557,2.021-0.697
		c0.357-0.071,0.233-0.646,0.496-0.908c0.041,0.037,0.081,0.074,0.121,0.11c-0.181,0.655-0.254,1.378-1.039,1.66
		c-0.248,0.058-0.696-0.208-0.698,0.221c-0.002,0.345,0.439,0.154,0.681,0.207c0.02,0.004,0.042-0.002,0.063-0.003
		c0.156,0.095,0.399,0.146,0.334,0.392c-0.055,0.209-0.293,0.282-0.469,0.263c-0.66-0.07-0.897,0.246-0.963,0.854
		c-0.037,0.343-1.072,0.974-1.454,0.861c-1.229-0.365-1.92,0.361-2.572,1.175c-0.178,0.221-0.287,0.5-0.586,0.134
		c-0.031-0.039-0.145-0.068-0.176-0.044c-0.329,0.259-0.645,0.324-0.965-0.017c-0.021-0.019-0.203,0.054-0.209,0.093
		c-0.053,0.555-0.644,0.867-0.626,1.473c0.02,0.752-0.339,1.004-1.068,0.843c-0.89-0.195-1.748,0.275-2.112,1.163
		c-0.363,0.882-0.693,1.095-1.637,1.062c-0.1-0.003-0.236-0.003-0.299,0.055c-0.59,0.553-1.467,0.796-1.788,1.648
		c-0.175,0.46-0.505,0.717-1.064,0.469c0.299,0.7,0.845,0.876,1.408,0.494c0.135-0.092,0.241-0.334,0.411-0.245
		c0.588,0.313,0.673-0.122,0.825-0.495c0.137-0.339,0.261-0.592,0.639-0.146c0.358,0.422,0.914,0.301,1.191-0.197
		c0.093-0.167,0.171-0.34,0.264-0.506c0.566-1.008,1.612-1.175,2.434-0.37c0.222,0.221,0.334,0.164,0.49-0.054
		c0.145-0.206,0.326-0.386,0.488-0.582c0.291-0.353,0.519-0.606,1.017-0.157c0.28,0.252,0.88,0.401,1.217,0.279
		c0.477-0.172,0.715-0.753,0.992-1.19c0.598-0.945,0.804-0.999,1.649-0.254c0.063,0.055,0.137,0.096,0.204,0.143
		c0.32-0.507,1.026,0.054,1.35-0.485c0.153-0.26,0.411-0.25,0.68-0.154c0.55,0.199,0.948,0.04,1.188-0.507
		c0.187-0.429,0.465-0.79,0.801-1.125c0.562-0.556,0.945-0.535,1.345,0.158c0.117,0.2,0.179,0.429,0.291,0.632
		c0.374,0.675,0.764,0.698,1.24,0.078c0.065-0.083,0.146-0.176,0.158-0.272c0.071-0.601,0.469-0.829,1.009-0.903
		c0.008,0.089,0.015,0.179,0.022,0.268c-0.017,0.402-0.094,0.708-0.601,0.81c-0.209,0.042-0.346,0.399-0.529,0.602
		c-0.554,0.612-0.77,0.617-1.368,0.107c-0.242-0.203-0.525-0.356-0.796-0.521c-0.066-0.04-0.214-0.072-0.233-0.044
		c-0.362,0.5-1.131,0.555-1.317,1.28c-0.223,0.873-0.435,0.967-1.358,0.918c-0.101-0.005-0.268-0.001-0.293,0.052
		c-0.302,0.635-1.008,0.323-1.451,0.622c-0.185,0.124-0.36-0.038-0.54-0.1c-0.775-0.271-1.129-0.115-1.43,0.636
		c-0.222,0.548-0.438,1.099-0.641,1.653c-0.146,0.399-0.309,0.665-0.837,0.475c-0.36-0.128-0.775-0.127-1.159-0.194
		c-0.384-0.066-0.738,0.367-0.959,0.728c-0.237,0.388-0.401,0.482-0.826,0.164c-0.717-0.537-2.165,0.169-2.422,1.12
		c-0.241,0.912-0.452,1.03-1.397,0.762c-0.107-0.031-0.236-0.077-0.293,0.015c-0.467,0.758-1.425,0.411-2.039,0.939
		c0.157,0.153,0.359,0.15,0.541,0.073c0.25-0.107,0.473-0.165,0.721-0.003c0.144,0.092,0.307,0.058,0.39-0.09
		c0.261-0.466,0.516-0.47,0.955-0.15c0.365,0.266,0.846,0.301,1.173-0.186c0.241-0.362,0.675-0.506,0.977-0.807
		c0.05-0.051,0.202-0.094,0.222-0.07c0.339,0.408,1.001,0.207,1.298,0.691c0.197,0.321,0.421,0.308,0.652,0.019
		c0.117-0.15,0.251-0.288,0.367-0.438c0.312-0.395,0.58-0.682,1.004-0.064c0.244,0.359,0.828,0.224,1.154,0.573
		c0.098,0.108,0.264-0.086,0.348-0.201c0.277-0.372,0.57-0.738,0.81-1.135c0.382-0.637,0.897-0.7,1.388-0.114
		c0.23,0.272,0.376,0.661,0.839,0.3c0.135-0.108,0.275,0.042,0.397,0.121c0.149,0.096,0.316,0.088,0.392-0.06
		c0.291-0.566,0.618-0.379,1.018-0.116c0.304,0.2,0.672,0.161,0.777-0.234c0.191-0.721,0.874-0.919,1.339-1.347
		c0.188-0.172,0.358-0.07,0.496,0.084c0.349,0.392,0.752,0.732,0.969,1.241c0.254,0.596,0.473,0.619,0.918,0.156
		c0.346-0.36,0.509-0.985,1.218-0.801c0.343-0.835,1.085-0.609,1.729-0.645c0.059-0.002,0.136-0.032,0.171-0.075
		c0.54-0.657,1.171-0.259,1.778-0.162c0.006,0.075,0.014,0.149,0.02,0.225c-0.611,0.012-1.28-0.323-1.763,0.385
		c-0.163,0.242-0.535,0.334-0.82,0.245c-0.494-0.155-0.708,0.101-0.904,0.46c-0.12,0.226-0.226,0.435-0.567,0.392
		c-0.265-0.032-0.309,0.257-0.396,0.437c-0.137,0.29-0.267,0.568-0.565,0.741c-0.374,0.216-0.676,0.198-0.924-0.19
		c-0.248-0.391-0.516-0.771-0.775-1.157c-0.263-0.387-0.477-0.346-0.699,0.047c-0.36,0.639-0.966,1.089-1.352,1.719
		c-0.178,0.287-0.536,0.206-0.823,0.088c-0.223-0.091-0.455-0.216-0.62,0.053c-0.207,0.336-0.513,0.286-0.835,0.37
		c-0.562,0.147-0.896-0.037-1.315-0.31c-0.342-0.224-0.708-0.195-0.96,0.253c-0.319,0.57-0.757,1.072-1.01,1.683
		c-0.141,0.334-0.307,0.394-0.528,0.062c-0.309-0.463-0.98-0.242-1.325-0.696c-0.078-0.105-0.318,0.156-0.421,0.308
		c-0.165,0.245-0.289,0.518-0.451,0.765c-0.216,0.335-0.423,0.454-0.805,0.115c-0.615-0.548-1.549-0.406-2.255,0.354
		c-0.479,0.516-0.967,0.646-1.582,0.333c-0.173-0.088-0.34-0.108-0.461,0.046c-0.249,0.323-0.455,0.691-0.964,0.384
		c-0.085-0.051-0.205,0.058-0.234,0.167c-0.04,0.15,0.091,0.143,0.188,0.187c0.356,0.162,0.698,0.468,0.99-0.109
		c0.111-0.225,0.299-0.126,0.47,0.024c0.765,0.669,0.87,0.661,1.643-0.044c0.653-0.601,1.731-0.466,2.216,0.338
		c0.31,0.51,0.492,0.513,0.854,0.054c0.563-0.713,0.608-0.667,1.289-0.115c0.333,0.269,0.782,0.374,1.07,0.742
		c0.107,0.143,0.265-0.029,0.361-0.138c0.27-0.299,0.545-0.593,0.796-0.907c0.466-0.584,0.77-0.624,1.309-0.054
		c0.594,0.631,1.234,0.874,2.045,0.418c0.219-0.124,0.345,0.083,0.499,0.185c0.627,0.423,0.862,0.398,1.177-0.286
		c0.266-0.58,0.911-0.551,1.293-0.932c0.104-0.105,0.258,0.096,0.341,0.212c0.332,0.461,0.726,0.873,0.949,1.418
		c0.268,0.658,0.661,0.707,1.14,0.178c0.261-0.289,0.431-0.716,0.957-0.45c0.041,0.021,0.18-0.054,0.208-0.114
		c0.256-0.564,0.612-0.651,1.148-0.328c0.178,0.109,0.454,0.055,0.673-0.077c0.205-0.126,0.313-0.422,0.633-0.351
		c0.803,0.179,1.075,0.353,1.443,0.979c-0.392-0.339-0.921-0.16-1.343-0.395c-0.247-0.139-0.394,0.054-0.536,0.207
		c-0.326,0.337-0.718,0.485-1.152,0.284c-0.349-0.161-0.517-0.029-0.657,0.254c-0.154,0.307-0.28,0.603-0.754,0.479
		c-0.271-0.07-0.35,0.262-0.473,0.446c-0.577,0.849-0.971,0.834-1.43-0.06c-0.066-0.131-0.116-0.285-0.216-0.383
		c-0.3-0.292-0.565-0.956-0.866-0.818c-0.463,0.211-1.028,0.45-1.283,1.02c-0.404,0.885-0.424,0.874-1.387,0.542
		c-0.097-0.033-0.271-0.074-0.295-0.038c-0.372,0.579-0.975,0.129-1.432,0.324c-0.249,0.107-0.374-0.135-0.523-0.275
		c-0.683-0.645-0.96-0.623-1.486,0.115c-0.243,0.344-0.504,0.68-0.733,1.034c-0.22,0.333-0.384,0.357-0.678,0.043
		c-0.329-0.352-0.935-0.331-1.201-0.829c-0.063-0.117-0.279-0.004-0.384,0.111c-0.114,0.125-0.21,0.265-0.322,0.391
		c-0.213,0.233-0.284,0.648-0.597,0.71c-0.36,0.07-0.37-0.395-0.578-0.583c-0.648-0.58-1.642-0.487-2.12,0.312
		c-0.359,0.598-0.763,0.73-1.369,0.504c-0.006,0.01-0.012,0.018-0.016,0.025c0.008-0.016,0.014-0.03,0.02-0.045
		c-0.068,0.512,0.341,0.641,0.682,0.775c0.367,0.146,0.45-0.204,0.597-0.425c0.413-0.621,1.007-0.637,1.537-0.146
		c0.386,0.357,0.793,0.667,1.006,1.169c0.108,0.257,0.305,0.265,0.5,0.049c0.126-0.141,0.26-0.277,0.394-0.411
		c0.341-0.343,0.649-0.399,0.891,0.104c0.253,0.535,0.966,0.594,1.22,1.147c0.058,0.128,0.229,0.063,0.327-0.037
		c0.299-0.298,0.647-0.565,0.88-0.91c0.301-0.446,0.576-0.417,0.922-0.098c0.123,0.113,0.316,0.209,0.359,0.347
		c0.234,0.759,1.087,0.526,1.512,0.963c0.641-0.499,1.058,0.152,1.572,0.294c0.205,0.057,0.436,0.016,0.499-0.177
		c0.203-0.604,0.807-0.593,1.228-0.859c0.224-0.141,0.376-0.045,0.482,0.131c0.327,0.535,0.806,0.964,1.017,1.594
		c0.239,0.717,0.685,0.773,1.236,0.214c0.206-0.21,0.357-0.491,0.726-0.222c0.218,0.157,0.354-0.023,0.449-0.197
		c0.207-0.386,0.427-0.462,0.793-0.146c0.353,0.304,0.76,0.368,1.134-0.018c0.089-0.092,0.249-0.209,0.333-0.113
		c0.308,0.349,0.839,0.354,1.178,0.738c-0.103,0.053-0.152,0.1-0.197,0.096c-0.618-0.037-1.271-0.421-1.818,0.2
		c-0.05,0.055-0.229,0.051-0.308,0.006c-0.535-0.304-0.979-0.319-1.255,0.328c-0.008,0.018-0.035,0.041-0.047,0.037
		c-0.698-0.207-0.948,0.419-1.377,0.719c-0.364,0.257-0.656,0.127-0.802-0.269c-0.219-0.587-0.612-1.057-0.982-1.546
		c-0.182-0.241-0.318-0.28-0.626-0.105c-0.516,0.299-0.96,0.589-1.242,1.16c-0.227,0.458-0.647,0.179-0.923-0.037
		c-0.298-0.232-0.525-0.335-0.803,0.004c-0.125,0.155-0.298,0.153-0.451,0.023c-0.154-0.135-0.319-0.221-0.523-0.131
		c-0.291,0.131-0.434-0.053-0.571-0.251c-0.157-0.232-0.364-0.403-0.604-0.554c-0.349-0.221-0.624-0.237-0.842,0.164
		c-0.071,0.128-0.156,0.265-0.271,0.353c-0.337,0.259-0.539,0.912-0.87,0.844c-0.477-0.1-0.95-0.499-1.292-0.885
		c-0.357-0.407-0.594-0.399-0.918-0.045c-0.073,0.078-0.15,0.152-0.221,0.229c-0.501,0.567-0.501,0.567-0.932-0.043
		c-0.612-0.866-1.632-0.909-2.338-0.097c-0.384,0.438-0.856,0.529-1.242,0.099c-0.416-0.465-0.676-0.477-0.999,0.043
		c-0.039,0.066-0.19,0.064-0.291,0.096c-0.051-0.033-0.103-0.066-0.155-0.1l-0.022-0.01l0.034-0.002
		c0.012,0.068,0.025,0.137,0.037,0.203c0.13,0.313,0.299,0.517,0.565,0.121c0.27-0.403,0.419-0.23,0.561,0.085
		c0.122,0.277,0.312,0.495,0.569,0.665c0.35,0.228,0.632,0.312,1.014-0.023c0.511-0.448,0.94-0.333,1.417,0.086
		c0.419,0.368,0.92,0.621,1.164,1.181c0.111,0.257,0.354,0.051,0.523-0.088c0.701-0.563,0.669-0.53,1.254,0.145
		c0.347,0.399,0.903,0.586,1.182,1.089c0.082,0.154,0.264-0.004,0.376-0.094c0.2-0.155,0.39-0.323,0.596-0.472
		c0.66-0.463,1.042-0.399,1.505,0.273c0.229,0.331,0.394,0.709,0.907,0.664c0.159-0.016,0.262,0.133,0.328,0.268
		c0.149,0.315,0.315,0.514,0.657,0.187c0.172-0.164,0.301-0.049,0.412,0.107c0.11,0.153,0.223,0.313,0.357,0.442
		c0.509,0.487,0.724,0.489,1.056-0.131c0.285-0.53,0.945-0.228,1.248-0.658c0.038-0.053,0.179,0.097,0.21,0.19
		c0.235,0.721,0.843,1.241,0.987,2.036c0.157,0.881,0.603,0.859,1.445,0.595c0.566-0.18,1.303-0.562,1.954-0.084
		c0.49,0.36,0.969-0.004,1.449,0.029c0.007,0.088,0.013,0.176,0.019,0.263c-0.158-0.035-0.295,0.01-0.409,0.121
		c-0.409,0.394-0.807,0.259-1.207-0.016c-0.102-0.072-0.212-0.131-0.318-0.196c-0.316,0.674-1.138,0.274-1.57,0.73
		c-0.577,0.609-0.977,0.56-1.256-0.209c-0.237-0.652-0.777-1.104-1.026-1.737c-0.045-0.117-0.206-0.266-0.289-0.182
		c-0.336,0.343-0.921,0.224-1.188,0.73c-0.354,0.675-0.643,0.714-1.252,0.244c-0.257-0.195-0.467-0.38-0.764-0.092
		c-0.044,0.039-0.156,0.082-0.17,0.064c-0.37-0.413-1.144-0.117-1.38-0.781c-0.075-0.215-0.246-0.386-0.43-0.54
		c-0.423-0.364-0.813-0.554-1.165,0.086c-0.067,0.12-0.245,0.179-0.322,0.3c-0.42,0.648-0.748,1.004-1.276,0.018
		c-0.155-0.292-0.644-0.521-0.937-0.855c-0.303-0.347-0.575,0.025-0.8,0.22c-0.616,0.54-0.616,0.552-1.033-0.147
		c-0.277-0.464-0.81-0.634-1.184-0.998c-0.239-0.231-0.755,0.102-1.038,0.392c-0.558,0.569-0.993,0.567-1.445-0.09
		c-0.256-0.372-0.453-0.66-0.815-0.114c-0.126,0.19-0.287,0.128-0.433,0c-0.123-0.109-0.225-0.264-0.526-0.211
		c0.247,0.191,0.3,0.429,0.403,0.642c0.139,0.276,0.278,0.641,0.696,0.278c0.133-0.115,0.318-0.111,0.384,0.045
		c0.2,0.497,0.759,0.746,0.882,1.29c0.043,0.204,0.152,0.36,0.372,0.378c0.257,0.025,0.39-0.145,0.425-0.376
		c0.073-0.515,0.506-0.366,0.805-0.413c0.327-0.055,0.349,0.224,0.392,0.458c0.017,0.101,0.042,0.243,0.113,0.286
		c0.631,0.386,1.028,0.945,1.344,1.596c0.118,0.244,0.321,0.029,0.479-0.07c0.672-0.423,0.767-0.396,1.182,0.279
		c0.066,0.106,0.133,0.261,0.231,0.292c0.571,0.18,0.721,0.674,0.91,1.14c0.11,0.275,0.249,0.415,0.477,0.104
		c0.237-0.333,0.663-0.446,0.901-0.791c0.185-0.261,0.411-0.166,0.576,0.055c0.178,0.235,0.392,0.466,0.496,0.732
		c0.209,0.534,0.552,0.76,1.112,0.979c0.64,0.247,1.463,0.302,1.876,1.042c0.118,0.211,0.378,0.399,0.701,0.145
		c0.992-0.789,2.02-0.411,2.167,0.828c0.069,0.586,0.353,1.075,0.563,1.594c0.243,0.597,0.649,0.713,1.24,0.423
		c0.258-0.125,0.469-0.174,0.694,0.029c0.148,0.133,0.309,0.123,0.469,0.012c0.012,0.076,0.025,0.15,0.037,0.226
		c-0.079,0.102-0.203,0.268-0.287,0.207c-0.464-0.333-0.776-0.061-1.164,0.167c-0.366,0.217-0.752,0.119-0.918-0.351
		c-0.292-0.82-0.989-1.432-1.179-2.305c-0.02-0.098-0.178-0.24-0.204-0.195c-0.252,0.437-0.894,0.162-1.127,0.634
		c-0.137,0.272-0.259,0.674-0.629,0.627c-0.378-0.047-0.708-0.313-0.853-0.695c-0.159-0.431-0.283-0.618-0.629-0.113
		c-0.195,0.279-0.318,0.01-0.385-0.163c-0.12-0.32-0.279-0.565-0.685-0.532c-0.199,0.018-0.283-0.154-0.386-0.29
		c-0.176-0.238-0.337-0.487-0.54-0.702c-0.57-0.605-0.58-0.598-1.173-0.047c-0.108,0.098-0.26,0.152-0.36,0.258
		c-0.443,0.466-0.736,0.429-1.098-0.148c-0.247-0.388-0.694-0.67-1.096-0.936c-0.299-0.198-0.615,0.023-0.899,0.154
		c-0.214,0.1-0.439,0.276-0.622,0.018c-0.32-0.446-0.747-0.791-1.099-1.202c-0.417-0.493-0.845-0.585-1.359-0.184
		c-0.573,0.444-0.823,0.44-1.282-0.106c-0.313-0.371-0.531-0.881-1.128-0.385c-0.568-0.403-1.403-0.28-1.864-0.836
		c-0.39-0.471-0.697-0.68-1.173-0.151c-0.055,0.063-0.189,0.057-0.294,0.086c0.073,0.247,0.253,0.366,0.432,0.226
		c0.419-0.331,0.551-0.047,0.783,0.24c0.331,0.403,0.774,0.707,1.145,1.081c0.212,0.212,0.423,0.374,0.507,0.682
		c0.065,0.238,0.265,0.405,0.533,0.358c0.685-0.12,1.062,0.334,1.443,0.751c0.232,0.253,0.404,0.394,0.806,0.276
		c0.564-0.162,1.149-0.113,1.454,0.54c0.17,0.362,0.628,0.57,0.39,1.159c-0.098,0.245,0.439,0.643,0.567,1.056
		c0.172,0.54,0.601,0.382,1.01,0.295c0.41-0.088,0.754,0.02,0.924,0.466c0.228,0.598,0.893,0.795,1.248,1.311
		c0.206,0.303,0.696-0.002,1.001-0.124c0.43-0.174,0.723-0.113,1.024,0.192c0.48,0.485,0.89,1,0.837,1.736
		c-0.012,0.133,0.004,0.304,0.111,0.341c0.544,0.199,0.618,0.698,0.802,1.136c0.064,0.154,0.146,0.352,0.339,0.34
		c0.694-0.037,1.047,0.489,1.464,0.877c0.201,0.187,0.263,0.294,0.453,0.01c0.191-0.283,1.21-0.396,1.475-0.188
		c0.073,0.059,0.135,0.174,0.141,0.267c0.011,0.25-0.182,0.055-0.263,0.102c-0.451,0.276-1.048,0.004-1.498,0.509
		c-0.24,0.271-0.713-0.121-0.884-0.476c-0.186-0.382-0.39-0.466-0.839-0.544c-0.589-0.099-1.399-0.206-1.571-1.026
		c-0.131-0.632-0.736-1.037-0.764-1.711c-0.008-0.15-0.181-0.24-0.345-0.221c-0.163,0.02-0.297,0.141-0.291,0.293
		c0.032,0.666-0.67,0.699-0.944,1.095c-0.097,0.141-0.229,0.055-0.302-0.074c-0.063-0.108-0.169-0.224-0.167-0.335
		c0.02-0.877-0.817-1.249-1.138-1.927c-0.186-0.394-0.593-0.337-0.89-0.154c-0.532,0.319-0.808,0.111-1.046-0.354
		c-0.268-0.521-0.887-0.67-1.244-1.134c-0.171-0.219-0.721-0.148-1.012,0.071c-0.354,0.27-0.591,0.195-0.886-0.062
		c-0.238-0.207-0.514-0.372-0.72-0.62c-0.077-0.094-0.247-0.237-0.286-0.214c-0.912,0.525-1.13-0.649-1.83-0.751
		c-0.344-0.048-0.33-0.828-0.67-1.204c-0.264-0.29-0.366-0.496-0.853-0.259c-0.424,0.206-1.02,0.231-1.45-0.205
		c-0.046-0.075-0.133-0.114-0.188-0.056c-0.071,0.077,0.049,0.11,0.085,0.161c0.206,0.435,0.488,0.852,0.188,1.364
		c-0.072,0.125-0.005,0.341,0.126,0.396c0.5,0.21,0.77,0.832,1.457,0.729c0.438-0.064,0.687,0.339,0.88,0.64
		c0.409,0.643,1.258,0.713,1.655,1.342c1.014-0.192,0.996,0.85,1.512,1.251c0.164,0.129,0.136,0.301,0.018,0.45
		c-0.176,0.225-0.006,0.421,0.012,0.638c0.081,0.981,0.713,1.28,1.562,1.414c0.561,0.092,0.816,0.505,1.134,0.973
		c0.416,0.612,0.647,1.65,1.814,1.384c0.261-0.061,0.56,0.047,0.639,0.313c0.224,0.76,0.949,1.116,1.345,1.732
		c0.07,0.261-0.211,0.629,0.157,0.783c0.286,0.121,0.646,0.068,0.905-0.086c0.295-0.175-0.069-0.448-0.004-0.678
		c0.397-0.094,0.768-0.156,0.614,0.47c-0.018,0.072,0,0.206,0.047,0.233c0.745,0.435,0.463,1.066,0.341,1.67
		c-0.016,0.078,0.014,0.166,0.022,0.25c-0.093,0-0.186,0-0.278,0c-0.19-0.242-0.102-0.528-0.132-0.798
		c-0.021-0.19,0.096-0.52-0.186-0.523c-0.346-0.004-0.182,0.351-0.224,0.551c-0.016,0.082,0,0.17-0.004,0.254
		c-0.023,0.458-0.465,0.807-1.034,0.766c-0.48-0.031-0.467-0.419-0.457-0.76c0.011-0.558,0-1.037-0.564-1.437
		c-0.295-0.208-0.262-0.797-0.584-1.132c-0.229-0.237-0.477-0.411-0.782-0.259c-0.709,0.353-0.944-0.096-1.16-0.616
		c-0.214-0.521-1.547-1.514-2.088-1.265c-0.527,0.243-0.829-0.031-1.189-0.294c-0.231-0.172-0.413-0.353-0.442-0.659
		c-0.026-0.245-0.147-0.468-0.42-0.492c-1.715-0.166-2.272-1.066-2.488-2.586c-0.055-0.397-0.187-0.673-0.759-0.569
		c-0.548,0.102-1.089,0.037-1.52-0.571c-0.49-0.691-1.21-1.228-1.831-1.829c-0.097-0.092-0.234-0.145-0.354-0.094
		c-0.358,0.154-0.597-0.016-0.849-0.239c-0.252-0.223-0.55-0.1-0.876-0.012c0.573,0.126,0.801,0.609,1.167,0.937
		c0.376,0.34,1.003,0.383,1.339,0.859c0.399,0.569,0.864,1.012,0.646,1.902c-0.167,0.674-0.275,1.631,0.632,2.142
		c0.107,0.061,0.25,0.177,0.252,0.271c0.029,1.002,0.892,1.004,1.528,1.271c0.425,0.182,0.758,0.507,1.015,0.84
		c0.56,0.725,1.131,1.397,2.032,1.707c0.084,0.029,0.14,0.096,0.128,0.19c-0.02,0.16-0.152,0.184-0.277,0.213
		c-0.122,0.027-0.274,0.041-0.276,0.204c-0.002,0.164,0.143,0.191,0.272,0.205c0.33,0.031,0.634,0.183,0.609,0.519
		c-0.025,0.353-0.067,0.77-0.513,0.935c-0.329,0.123-0.388,0.219,0,0.392c0.683,0.307,0.617,1.096,0.962,1.632
		c0.227,0.349,0.425,0.658,0.819,0.689c0.466,0.039,0.785,0.261,1.106,0.554c0.39,0.356,0.768,0.727,1.236,0.995
		c0.241,0.139,0.431,0.366,0.401,0.675c-0.043,0.488,0.202,0.73,0.659,0.734c0.731,0.006,0.184,0.66,0.603,0.889
		c-0.307,0.041-0.494,0.063-0.682,0.093c-0.34,0.055-0.557-0.091-0.566-0.425c-0.008-0.312-0.172-0.557-0.254-0.836
		c-0.368-1.218-1.236-1.643-2.436-1.623c-0.469,0.008-0.797-0.259-1.026-0.641c-0.245-0.405-0.467-0.824-1.06-0.746
		c-0.069,0.008-0.194-0.047-0.215-0.102c-0.298-0.805-1.077-1.204-1.571-1.842c-0.229-0.3-0.053-0.57,0.035-0.838
		c0.117-0.349,0.164-0.645-0.204-0.886c-0.229-0.152-0.282-0.371-0.229-0.665c0.071-0.38-0.171-0.605-0.557-0.59
		c-0.888,0.032-1.54-0.311-1.989-1.08c-0.357-0.611-0.976-0.995-1.444-1.512c-0.078-0.088-0.227-0.186-0.328-0.172
		c-0.542,0.068-0.767-0.149-0.819-0.684c-0.027-0.277-0.329-0.331-0.604-0.362c-0.756-0.084-1.165-0.442-1.301-1.172
		c-0.069-0.37-0.139-0.658-0.604-0.645c-0.164,0.006-0.287-0.109-0.275-0.284c0.015-0.176,0.16-0.236,0.319-0.248
		c0.195-0.014,0.415-0.006,0.44-0.259c0.015-0.146-0.148-0.251-0.259-0.213c-0.226,0.076-0.517-0.282-0.663,0.08
		c-0.079,0.193-0.195,0.311-0.357,0.423c-0.574,0.403-0.521,1.766,0.062,2.157c0.326,0.221,0.923,0.286,0.638,0.936
		c-0.014,0.033,0.046,0.134,0.089,0.147c0.717,0.24,0.956,1.076,1.682,1.306c0.279,0.088,0.411,0.342,0.563,0.579
		c0.28,0.437,0.502,0.951,1.127,1.028c0.073,0.008,0.158,0.076,0.205,0.141c0.062,0.08,0.145,0.252,0.123,0.267
		c-0.678,0.536,0.702,1.211-0.164,1.799c-0.538,0.366-0.353,0.501-0.122,1.126c0.178,0.483,0.399,0.984,0.63,1.403
		c0.486,0.887,0.999,1.861,2.11,2.214c0.299,0.094,0.548,0.224,0.397,0.637c-0.11,0.295,0.137,0.415,0.376,0.472
		c0.331,0.08,0.507,0.227,0.325,0.579c-0.054,0.101-0.073,0.226,0.008,0.298c0.766,0.695,0.411,1.506,0.193,2.263
		c-0.112,0.396-0.073,0.656,0.15,0.979c0.137,0.191,0.141,0.474,0.203,0.716c-0.076,0-0.153,0.002-0.229,0.004
		c-0.172-0.406-0.341-0.712-0.894-0.812c-0.682-0.12-0.888-1.009-0.399-1.549c0.338-0.374,0.208-0.598-0.106-0.82
		c-0.473-0.331-0.674-0.738-0.821-1.325c-0.292-1.153-0.996-2.087-2.261-2.418c-0.172-0.045-0.342-0.084-0.397-0.269
		c-0.136-0.433-0.427-0.655-0.878-0.714c-0.108-0.013-0.283-0.128-0.293-0.21c-0.067-0.612-0.773-0.822-0.868-1.431
		c-0.039-0.251-0.354-0.315-0.608-0.396c-0.283-0.091-0.323-0.319-0.021-0.425c0.317-0.11,0.464-0.331,0.62-0.592
		c0.242-0.411,0.054-0.628-0.314-0.783c-0.68-0.285-0.68-0.283-0.069-0.77c-1.551-0.692-2.438-2.093-3.601-3.194
		c-0.132-0.124-0.196-0.269-0.171-0.454c0.031-0.222-0.081-0.372-0.285-0.437c-0.542-0.169-0.728-0.6-0.699-1.083
		c0.025-0.433-0.211-0.861-0.006-1.288l-0.034-0.018l0.023,0.029c-0.367-0.098-0.592,0.037-0.592,0.417
		c0,0.229-0.118,0.397-0.189,0.593c-0.181,0.498-0.206,0.956,0.42,1.192c0.249,0.092,0.45,0.216,0.354,0.561
		c-0.164,0.593,0.251,1.018,0.596,1.353c0.307,0.296,0.605,0.515,0.728,0.967c0.089,0.327,0.345,0.631,0.581,0.896
		c0.244,0.274,0.392,0.496,0.058,0.795c-0.133,0.116-0.125,0.282-0.002,0.396c0.376,0.345,0.235,0.689-0.083,0.902
		c-0.806,0.541-0.524,1.29-0.267,1.87c0.229,0.509,0.306,1.066,0.645,1.576c0.411,0.62,0.915,1.006,1.493,1.376
		c0.292,0.189,0.633,0.329,0.35,0.773c-0.097,0.148,0.005,0.279,0.094,0.403c0.069,0.102,0.209,0.275,0.182,0.312
		c-0.449,0.585,0.122,0.908,0.33,1.317c0.162,0.316,0.246,0.614-0.182,0.777c-0.419,0.162-0.328,0.614-0.536,0.871
		c-0.294,0.366,0.004,0.581,0.053,0.881c0.088,0.534,0.289,0.879,0.777,1.105c0.205,0.095,0.244,0.358,0.25,0.561
		c0.02,0.683,0.463,0.922,1.034,1.092c0.785,0.233,1.096,0.779,0.989,1.648c-0.074-0.002-0.149-0.004-0.224-0.006
		c0.031-0.17,0.053-0.354-0.075-0.483c-0.585-0.606-1.103-1.317-2.045-1.407c-0.37-0.035-0.56-0.224-0.646-0.584
		c-0.104-0.438-0.308-0.822-0.767-1.025c-0.218-0.1-0.356-0.292-0.362-0.558c0-0.103-0.006-0.251-0.071-0.298
		c-0.859-0.625-0.22-1.224,0.063-1.787c0.205-0.405,0.04-0.717-0.143-1.001c-0.22-0.335-0.373-0.608-0.447-1.055
		c-0.13-0.795-0.392-1.688-1.335-2.067c-0.787-0.315-0.905-1.132-1.254-1.771c-0.037-0.072-0.037-0.217-0.081-0.227
		c-0.677-0.183-0.531-0.961-0.975-1.308c-0.171-0.134-0.148-0.28-0.006-0.433c0.146-0.151,0.263-0.339,0.423-0.47
		c0.43-0.341,0.735-0.646-0.004-0.985c-0.18-0.082-0.172-0.289-0.031-0.435c0.323-0.331,0.104-0.534-0.177-0.692
		c-0.44-0.249-0.793-0.643-1.305-0.781c-0.058-0.016-0.152-0.049-0.162-0.087c-0.177-0.772-1.09-0.896-1.381-1.562
		c-0.15-0.341-0.678-0.308-0.733-0.742c0.097-0.045,0.189-0.156,0.108-0.214c-0.104-0.076-0.13,0.083-0.182,0.153
		c-0.39,0.597,0.259,0.873,0.477,1.192c0.257,0.371,0.619,0.628,0.662,1.146c0.02,0.243,0.231,0.502,0.417,0.697
		c0.321,0.337,0.614,0.623,0.017,0.971c-0.156,0.091-0.135,0.267-0.006,0.382c0.409,0.356,0.131,0.555-0.154,0.787
		c-1.064,0.863-0.969,0.922-0.679,2.246c0.129,0.595,0.444,1.072,0.602,1.632c0.141,0.494,0.678,0.725,1.1,1.001
		c0.311,0.203,0.768,0.329,0.322,0.826c-0.118,0.131-0.035,0.278,0.062,0.401c0.078,0.102,0.212,0.26,0.125,0.329
		c-0.527,0.423-0.109,0.818-0.004,1.229c0.091,0.35,0.043,0.614-0.303,0.865c-0.58,0.427-1.066,0.875-0.788,1.795
		c0.125,0.403,0.188,0.756,0.509,1.053c0.181,0.165,0.183,0.445,0.164,0.658c-0.046,0.511,0.228,0.699,0.65,0.85
		c1.256,0.444,1.49,1.594,0.48,2.498c-0.475,0.427-0.17,0.848-0.153,1.28c-0.091,0.018-0.183,0.033-0.273,0.049
		c-0.5-0.731-0.459-0.818,0.061-1.499c0.275-0.364,0.376-0.746,0.132-1.315c-0.289-0.68-0.725-0.814-1.304-0.954
		c-0.501-0.123-0.879-0.378-0.924-0.977c-0.026-0.329-0.15-0.652-0.441-0.887c-0.419-0.337-0.386-0.916-0.652-1.354
		c-0.108-0.177,0.278-0.762,0.562-1.04c0.48-0.468,0.337-0.916,0.103-1.378c-0.12-0.237-0.267-0.423-0.075-0.686
		c0.136-0.184,0.063-0.358-0.087-0.511c-0.057-0.061-0.163-0.153-0.147-0.194c0.401-1.037-0.687-1.043-1.084-1.505
		c-0.511-0.588-1.017-1.138-1.151-1.946c-0.06-0.339-0.129-0.729-0.272-1.01c-0.316-0.633,0.023-0.999,0.364-1.395
		c0.238-0.279,0.466-0.515,0.074-0.84c-0.145-0.123-0.184-0.311-0.02-0.442c0.36-0.289,0.241-0.524-0.045-0.768
		c-0.063-0.055-0.134-0.127-0.151-0.201c-0.299-1.22-1.496-1.789-2.063-2.81c-0.071-0.129-0.141-0.15-0.239-0.074
		c-0.087,0.068-0.145,0.188-0.063,0.278c0.3,0.33,0.252,0.859,0.684,1.113c0.172,0.101,0.269,0.259,0.245,0.478
		c-0.051,0.475,0.174,0.874,0.443,1.216c0.255,0.321,0.229,0.506-0.106,0.703c-0.181,0.107-0.422,0.241-0.227,0.487
		c0.304,0.378,0.077,0.559-0.215,0.748c-0.141,0.096-0.273,0.202-0.411,0.304c-0.729,0.534-0.781,1.02-0.742,1.893
		c0.027,0.623,0.299,1.147,0.386,1.732c0.069,0.465,0.548,0.674,0.872,0.964c0.276,0.246,0.637,0.433,0.191,0.834
		c-0.12,0.111-0.097,0.266-0.023,0.411c0.043,0.092,0.112,0.26,0.079,0.287c-0.526,0.447-0.191,1.009-0.219,1.518
		c-0.013,0.2-0.042,0.421-0.227,0.495c-0.562,0.224-0.709,0.822-1.127,1.171c-0.075,0.061-0.174,0.22-0.15,0.255
		c0.328,0.452-0.154,1.076,0.368,1.511c0.22,0.185,0.11,0.57,0.061,0.854c-0.064,0.37,0.11,0.537,0.406,0.689
		c0.303,0.154,0.803,0.131,0.842,0.563c0.062,0.674,0.04,1.354-0.577,1.856c-0.659,0.54-0.722,0.871-0.265,1.648
		c0.251,0.435-0.396,0.534-0.257,0.887c-0.086,0.002-0.171,0.004-0.258,0.004c-0.138-0.15-0.049-0.269,0.062-0.38
		c0.185-0.184,0.173-0.335-0.004-0.54c-0.562-0.648-0.54-1.042,0.041-1.629c0.75-0.76,0.513-1.985-0.479-2.338
		c-0.488-0.176-0.811-0.409-0.756-0.99c0.029-0.321-0.068-0.648-0.386-0.814c-0.445-0.233-0.066-0.711-0.289-0.947
		c-0.386-0.407-0.034-0.572,0.136-0.879c0.213-0.382,0.484-0.65,0.814-0.923c0.378-0.309,0.178-0.748,0.002-1.104
		c-0.114-0.231-0.201-0.413,0.012-0.619c0.186-0.178,0.178-0.358,0.022-0.56c-0.058-0.078-0.131-0.235-0.095-0.284
		c0.521-0.707-0.129-0.898-0.538-1.088c-0.808-0.372-1.131-1.142-1.373-1.829c-0.21-0.593-0.26-1.3-0.329-1.958
		c-0.042-0.389,0.463-0.558,0.721-0.824c0.289-0.297,0.923-0.444,0.246-1.002c-0.203-0.168,0.096-0.31,0.246-0.405
		c0.246-0.156,0.436-0.323,0.118-0.577c-0.467-0.374-0.76-0.838-0.821-1.439c-0.023-0.236-0.192-0.366-0.401-0.45
		c-0.065-0.063-0.13-0.125-0.196-0.188c-0.059-0.039-0.169-0.116-0.173-0.112c-0.086,0.106-0.015,0.165,0.081,0.21
		c0.06,0.066,0.119,0.133,0.179,0.199c0.222,0.368-0.125,0.783,0.102,1.167c0.092,0.155,0.082,0.372,0.228,0.513
		c0.302,0.288,0.163,0.473-0.141,0.621c-0.31,0.154-0.565,0.319-0.311,0.723c0.118,0.188-0.017,0.324-0.162,0.423
		c-0.228,0.158-0.444,0.354-0.698,0.442c-1.015,0.351-0.919,1.192-1.136,2.015c-0.17,0.642,0.194,1.102,0.113,1.672
		c-0.055,0.39,0.427,0.644,0.748,0.883c0.339,0.256,0.646,0.483,0.117,0.85c-0.157,0.111-0.205,0.266-0.11,0.444
		c0.063,0.119,0.11,0.298-0.008,0.347c-0.641,0.262-0.443,0.816-0.483,1.286c-0.032,0.374-0.201,0.646-0.562,0.77
		c-0.375,0.127-0.592,0.479-0.878,0.655c-0.663,0.409-0.666,1.114-0.592,1.566c0.104,0.624,0.146,1.202,0.061,1.822
		c-0.026,0.187,0.239,0.261,0.409,0.349c0.241,0.125,0.694,0.196,0.658,0.417c-0.059,0.36,0.034,0.777-0.147,1.071
		c-0.202,0.331-0.408,0.704-0.77,0.914c-0.636,0.37-0.666,0.943-0.476,1.537c0.109,0.342-0.002,0.519-0.248,0.694
		c-0.039-0.037-0.077-0.074-0.116-0.111c0.134-0.195,0.127-0.353-0.022-0.567c-0.39-0.555-0.288-1.085,0.242-1.518
		c0.568-0.466,0.889-1.435,0.644-2.009c-0.099-0.234-0.355-0.296-0.574-0.364c-0.493-0.156-0.75-0.425-0.627-0.98
		c0.074-0.333,0.021-0.65-0.248-0.938c-0.236-0.249-0.057-1.367,0.14-1.662c0.272-0.407,0.583-0.748,0.975-1.054
		c0.336-0.262,0.234-0.699,0.115-1.063c-0.072-0.22-0.129-0.403,0.07-0.57c0.23-0.191,0.282-0.397,0.119-0.667
		c-0.045-0.071-0.045-0.245,0.007-0.292c0.531-0.476,0.078-0.682-0.229-0.969c-0.368-0.349-0.6-0.766-0.839-1.233
		c-0.444-0.865-0.059-1.713-0.322-2.525c-0.06-0.183,0.113-0.302,0.25-0.405c0.289-0.214,0.578-0.431,0.873-0.637
		c0.289-0.203,0.593-0.364,0.226-0.781c-0.209-0.238,0.061-0.372,0.238-0.478c0.342-0.199,0.346-0.39,0.099-0.703
		c-0.27-0.344-0.391-0.761-0.463-1.214c-0.098-0.61-0.683-0.982-0.953-1.542c-0.096,0.382-0.183,0.738,0.077,1.066
		c0.13,0.165,0.138,0.353,0.046,0.537c-0.113,0.225-0.09,0.462-0.038,0.685c0.125,0.535,0.298,1.069-0.417,1.346
		c-0.032,0.012-0.074,0.074-0.067,0.102c0.245,0.92-0.597,1.131-1.085,1.356c-0.859,0.399-0.801,1.134-0.963,1.809
		c-0.032,0.134,0.012,0.3-0.104,0.407c-0.248,0.229-0.384,0.45-0.065,0.73c0.05,0.047,0.087,0.185,0.056,0.229
		c-0.395,0.558,0.1,0.906,0.33,1.286c0.186,0.309,0.32,0.542-0.014,0.814c-0.143,0.117-0.173,0.283-0.15,0.462
		c0.017,0.146,0.059,0.356-0.084,0.407c-0.604,0.223-0.692,0.758-0.853,1.265c-0.11,0.345-0.405,0.544-0.717,0.685
		c-0.539,0.245-1.024,0.586-1.27,1.101c-0.245,0.517-0.575,1.062-0.332,1.693c0.14,0.364-0.084,0.658-0.227,0.953
		c-0.129,0.267-0.16,0.446,0.124,0.639c0.528,0.358,0.672,1.163,0.294,1.689c-0.221,0.308-0.481,0.595-0.82,0.789
		c-0.978,0.563-1.071,0.738-0.972,1.803c-0.501-0.7-0.413-1.349,0.304-1.773c0.752-0.448,0.979-1.144,1.04-1.929
		c0.022-0.283-0.282-0.358-0.495-0.409c-0.627-0.156-0.835-0.493-0.584-1.102c0.119-0.288,0.08-0.551-0.117-0.83
		c-0.214-0.302,0.099-1.387,0.379-1.631c0.424-0.37,0.783-0.801,1.269-1.12c0.326-0.215,0.268-0.689,0.217-1.068
		c-0.027-0.2-0.043-0.38,0.114-0.521c0.218-0.199,0.371-0.396,0.21-0.712c-0.076-0.151,0.034-0.29,0.166-0.376
		c0.388-0.253,0.308-0.46-0.013-0.727c-0.429-0.354-0.565-0.826-0.725-1.38c-0.255-0.896,0.19-1.678,0.08-2.514
		c-0.028-0.208,0.157-0.337,0.316-0.446c0.317-0.212,0.644-0.411,0.962-0.623c0.273-0.182,0.644-0.306,0.317-0.766
		c-0.153-0.219,0.084-0.341,0.264-0.405c0.512-0.184,0.573-0.327,0.335-0.928c-0.333-0.85-0.59-1.742-0.946-2.596
		c-0.033-0.078-0.011-0.245,0.048-0.288c0.494-0.37,0.241-0.664-0.083-0.953c-0.089-0.078-0.068-0.362-0.292-0.196
		c-0.157,0.118-0.044,0.267,0.051,0.386c0.163,0.202,0.188,0.438-0.079,0.513c-0.723,0.196-0.624,0.803-0.529,1.233
		c0.107,0.48,0.002,0.888-0.057,1.336c-0.081,0.616,0.154,1.323-0.59,1.709c0.031,0.906-0.723,0.941-1.309,1.159
		c-0.901,0.338-1.082,1.203-1.452,1.928c-0.037,0.072-0.007,0.22-0.049,0.239c-0.615,0.27-0.531,0.811-0.627,1.333
		c-0.108,0.581,0.008,0.998,0.464,1.327c0.289,0.208,0.279,0.349-0.047,0.472c-0.352,0.13-0.58,0.339-0.555,0.748
		c0.016,0.251-0.148,0.423-0.37,0.444c-0.535,0.055-0.64,0.392-0.762,0.842c-0.297,1.101-1.23,1.621-2.177,2.073
		c-0.298,0.141-0.366,0.327-0.52,0.583c-0.414,0.684-0.052,1.646-0.864,2.17c-0.243,0.158-0.125,0.427,0.14,0.546
		c0.261,0.119,0.759,0.174,0.642,0.468c-0.154,0.392-0.128,0.949-0.653,1.149c-0.026-0.027-0.05-0.057-0.077-0.084
		c0.036-0.304-0.057-0.617,0.215-0.891c0.213-0.212-0.028-0.347-0.202-0.407c-0.654-0.228-0.766-0.625-0.461-1.218
		c0.126-0.243,0.115-0.51,0.018-0.795c-0.15-0.444,0.333-1.383,0.679-1.695c0.472-0.427,0.939-0.826,1.547-1.05
		c0.179-0.066,0.323-0.252,0.342-0.437c0.074-0.725,0.471-1.36,0.754-1.972c0.328-0.71-0.008-1.094-0.161-1.643
		c-0.146-0.528-0.231-1.123-0.023-1.672c0.15-0.396,0.203-0.836,0.222-1.215c0.038-0.723,0.516-0.915,0.997-1.161
		c0.5-0.255,1.214-0.29,1.001-1.163c-0.042-0.174,0.197-0.241,0.363-0.294c0.437-0.143,0.694-0.339,0.47-0.883
		c-0.129-0.31-0.14-0.688-0.023-1.053c0.166-0.518-0.405-0.905-0.309-1.428c0.009-0.051-0.081-0.158-0.07-0.166
		c0.786-0.576-0.103-1.627,0.636-2.213c0.008-0.049,0.016-0.098,0.025-0.146c-0.047,0.02-0.095,0.039-0.142,0.061
		c-0.201,0.11-0.357,0.278-0.602,0.341c-0.479,0.117-0.71,0.442-0.59,0.941c0.084,0.349-0.084,0.615-0.376,0.6
		c-0.863-0.041-0.882,0.647-0.874,1.109c0.008,0.486-0.25,0.899-0.232,1.316c0.039,0.898-0.541,1.491-0.91,2.183
		c-0.107,0.199-0.445,0.353-0.699,0.39c-0.535,0.086-0.994,0.353-1.495,0.513c-0.46,0.148-0.912,0.378-1.026,0.938
		c-0.074,0.358-0.412,0.522-0.62,0.777c-0.745,0.906-0.989,1.892-0.646,3.019c0.026,0.089,0.001,0.269-0.053,0.294
		c-0.698,0.327-0.799,1.308-1.616,1.475c-0.369,0.074-0.463,0.401-0.693,0.599c-0.836,0.711-1.673,1.431-2.417,2.233
		c-0.301,0.323-0.509,0.875-0.495,1.313c0.022,0.702-0.392,0.743-0.933,0.854c0.09-0.292,0.291-0.559,0.026-0.816
		c-0.082-0.077-0.055-0.259,0.037-0.274c0.799-0.133,0.784-0.951,1.184-1.413c0.494-0.568,1.312-0.927,1.467-1.704
		c0.136-0.683,0.787-1.01,0.916-1.674c0.059-0.299,0.483-0.301,0.746-0.421c0.375-0.176,0.44-0.363,0.11-0.647
		c-0.159-0.139-0.284-0.317-0.445-0.452c-0.315-0.257-0.474-0.493-0.021-0.77c0.079-0.047,0.176-0.22,0.153-0.249
		c-0.429-0.567,0.142-0.665,0.398-0.957c0.235-0.269,0.41-0.676,0.472-0.986c0.199-0.96,1.092-1.032,1.684-1.461
		c0.343-0.248,0.798-0.312,0.701-0.883c-0.013-0.078,0.075-0.23,0.149-0.255c0.649-0.232,0.634-0.737,0.586-1.282
		c-0.021-0.248-0.025-0.517,0.144-0.731c0.167-0.21,0.149-0.378,0.024-0.625c-0.27-0.526-0.051-1.151,0.453-1.462
		c0.175-0.106,0.303-0.206,0.241-0.45c-0.176-0.691,0.02-1.017,0.702-1.32c0.729-0.324,1.351-0.861,1.839-1.433
		c0.371-0.433,0.68-1.124,0.327-1.824c-0.363,0.258-0.326,0.745-0.419,1.1c-0.212,0.807-0.737,1.069-1.456,1.13
		c-0.935,0.08-1.653,0.569-2.339,1.138c-0.34,0.281-0.953,0.638-0.974,0.818c-0.07,0.591-0.632,0.842-0.726,1.356
		c-0.014,0.084-0.013,0.207-0.064,0.24c-0.709,0.438-0.604,1.379-1.197,1.884c-0.262,0.078-0.519,0.182-0.786,0.229
		c-0.39,0.068-0.541,0.281-0.499,0.657c-0.936,0.302-1.169,1.298-1.856,1.86c-0.529,0.433-1.04,0.687-1.721,0.587
		c-0.197-0.027-0.401,0.043-0.496,0.224c-0.164,0.318-0.258,0.569-0.75,0.359c-0.287-0.125-0.501,0.331-0.524,0.588
		c-0.062,0.661-0.839,0.898-0.872,1.557c-0.003,0.053-0.171,0.137-0.265,0.139c-0.579,0.016-0.738,0.362-0.666,0.848
		c0.09,0.597,0,1.08-0.605,1.37c-0.093,0.043-0.125,0.208-0.185,0.317c-0.074-0.004-0.147-0.01-0.219-0.016
		c0.52-0.621,0.583-1.245,0.451-2.085c-0.101-0.646,0.483-1.401,0.766-2.106c0.015-0.037,0.049-0.09,0.079-0.094
		c0.64-0.077,0.837-0.625,1.17-1.046c0.584-0.738,1.512-0.746,2.323-0.969c0.468-0.128,1.031-0.037,0.975-0.777
		c-0.002-0.035,0.025-0.094,0.055-0.111c0.902-0.514,0.563-1.557,0.972-2.285c0.169-0.302-0.048-0.679,0.04-1.047
		c0.092-0.378,0.106-0.744,0.465-0.985c0.063-0.043,0.118-0.133,0.128-0.207c0.123-0.993,0.417-1.325,1.406-1.584
		c0.351-0.094,0.694-0.2,0.912-0.532c0.134-0.204,0.348-0.312,0.588-0.347c0.422-0.059,0.702-0.272,0.819-0.688
		c0.028-0.1,0.07-0.254,0.137-0.273c0.691-0.185,0.582-0.779,0.687-1.271c0.159-0.736,0.144-1.523,0.626-2.172
		c0.028-0.037-0.004-0.117-0.013-0.254c-0.421,0.37-0.77,0.72-1.291,0.906c-0.27,0.098-0.368,0.707-0.514,1.099
		c-0.1,0.268-0.172,0.519-0.528,0.538c-0.161,0.01-0.289,0.133-0.319,0.279c-0.16,0.758-0.736,0.74-1.294,0.648
		c-0.386-0.063-0.623,0.043-0.78,0.368c-0.109,0.225-0.264,0.354-0.51,0.433c-0.378,0.119-0.661,0.421-0.882,0.711
		c-0.519,0.685-1.028,1.158-2.009,0.842c-0.356-0.112-0.777,0.311-1.292,0.146c-0.245-0.078-0.47,0.466-0.494,0.789
		c-0.051,0.655-0.485,0.832-0.999,0.814c-0.477-0.014-0.631,0.197-0.85,0.569c-0.275,0.472-0.439,1.001-0.784,1.43
		c-0.105,0.131-0.223,0.334-0.352,0.347c-0.525,0.061-0.653,0.431-0.716,0.836c-0.069,0.435-0.296,0.606-0.729,0.626
		c-0.343,0.016-0.67,0.125-0.856,0.462c-0.505,0.918-0.848,1.04-1.832,0.656c-0.119-0.045-0.233-0.103-0.354-0.136
		c-0.142-0.041-0.375,0.071-0.345-0.225c0.017-0.169,0.028-0.345,0.195-0.446c0.168-0.102,0.36-0.084,0.459,0.068
		c0.184,0.284,0.344,0.413,0.594,0.074c0.027-0.037,0.118-0.037,0.178-0.035c0.213,0.004,0.328,0.517,0.437,0.274
		c0.217-0.481,0.737-0.723,0.867-1.226c0.147-0.57,0.333-1.075,0.965-1.306c0.272-0.097,0.218-0.413,0.269-0.66
		c0.12-0.597-0.047-1.388,0.927-1.477c0.178-0.018,0.234-0.211,0.259-0.395c0.1-0.736,0.816-1.523,1.526-1.619
		c0.518-0.071,0.786-0.479,1.167-0.73c0.281-0.185,0.512-0.45,0.91-0.284c0.14,0.057,0.332,0.01,0.395-0.137
		c0.222-0.509,0.639-0.542,1.107-0.501c0.51,0.043,0.761-0.257,0.808-0.705c0.112-1.081,0.489-2.079,0.999-3.015
		c0.321-0.588,1.04-0.695,1.639-0.789c0.626-0.102,1.166-0.214,1.452-0.842c0.083-0.179,0.243-0.274,0.424-0.36
		c0.257-0.123,0.451-0.313,0.414-0.633c-0.809,0.128-1.526,0.824-2.416,0.327c-0.074-0.039-0.249-0.023-0.296,0.033
		c-0.373,0.444-1.043,0.533-1.285,1.161c-0.212,0.55-0.919,0.648-1.252,1.128c-0.072,0.104-0.235-0.002-0.354-0.047
		c-0.448-0.171-0.885-0.458-1.386-0.114c-0.057,0.04-0.214-0.006-0.292-0.059c-0.404-0.279-0.608-0.08-0.79,0.278
		c-0.266,0.53-0.676,0.801-1.296,0.614c-0.155-0.047-0.342-0.045-0.4,0.099c-0.188,0.47-0.595,0.745-0.901,1.107
		c-0.246,0.292-0.366,0.617-0.86,0.578c-0.239-0.02-0.288,0.33-0.36,0.546c-0.11,0.325-0.262,0.567-0.676,0.524
		c-0.382-0.037-0.629,0.196-0.843,0.479c-0.536,0.707-1.281,0.793-1.973,0.187c-0.237-0.206-0.379-0.222-0.656-0.084
		c-0.634,0.32-1.208,0.702-1.68,1.233c-0.128,0.145-0.27,0.227-0.49,0.24c-0.795,0.045-1.485,0.304-1.913,1.036
		c-0.396,0.679-0.459,0.698-1.097,0.201c-0.302-0.236-0.296,0.237-0.521,0.165c-0.013-0.494,0.065-0.87,0.709-0.715
		c0.243,0.059,0.521,0.016,0.66-0.155c0.435-0.536,1.141-0.702,1.593-1.197c0.272-0.298,0.644-0.118,0.959-0.257
		c0.73-0.323,0.961-1.035,1.383-1.6c0.101-0.135,0.18-0.284,0.276-0.423c0.288-0.413,0.551-0.717,0.91-0.027
		c0.205,0.394,0.773,0.308,1.077,0.654c0.119,0.137,0.255-0.153,0.293-0.306c0.16-0.633,0.278-1.298,0.715-1.803
		c0.536-0.621,1.184-1.14,1.928-1.494c0.264-0.127,0.63-0.182,0.787-0.384c0.544-0.707,1.593-0.552,2.104-1.286
		c0.197-0.284,0.355-0.538,0.32-0.92c-0.049-0.521,0.202-0.691,0.734-0.549c0.188,0.05,0.332,0.022,0.479-0.072
		c0.148-0.1,0.31-0.119,0.485-0.125c0.467-0.014,1.016,0.442,1.376-0.208c0.242-0.435,0.666-0.729,0.822-1.255
		c0.138-0.468,0.268-1.039,0.918-1.195c0.222-0.052,0.34-0.36,0.2-0.518c-0.168-0.191-0.556-0.188-0.653,0.043
		c-0.305,0.727-1.038,1.12-1.355,1.823c-0.157,0.345-0.329,0.356-0.621,0.104c-0.376-0.323-0.719-0.834-1.361-0.435
		c-0.129,0.082-0.266-0.096-0.352-0.217c-0.283-0.394-0.466-0.224-0.638,0.098c-0.091,0.166-0.193,0.327-0.305,0.483
		c-0.157,0.223-0.468,0.444-0.638,0.331c-0.904-0.586-1.25,0.384-1.853,0.606c-0.174,0.063-0.307,0.22-0.521,0.137
		c-0.058-0.023-0.168-0.053-0.18-0.035c-0.508,0.814-1.971,0.231-2.199,1.504c-0.071,0.401-0.328,0.608-0.813,0.191
		c-0.366-0.316-0.717-0.56-0.925-1.031c-0.192-0.435-1.103-0.245-1.262,0.298c-0.196,0.679-0.888,0.895-1.192,1.452
		c-0.024,0.045-0.113,0.094-0.159,0.084c-0.843-0.184-1.471,0.222-2.07,0.721c-0.062,0.053-0.165,0.104-0.232,0.088
		c-0.737-0.178-1.427,0.093-2.131,0.212c-0.103,0.018-0.221-0.006-0.312,0.035c-0.792,0.351-1.573,0.407-2.352-0.139
		c1.016,0.363,1.913-0.239,2.882-0.272c0.081-0.002,0.209-0.014,0.233-0.061c0.298-0.588,0.726-0.748,1.357-0.507
		c0.17,0.064,0.421-0.087,0.537-0.282c0.241-0.403,0.454-0.83,1.026-0.82c0.018,0,0.051-0.02,0.051-0.031
		c0.054-0.818,0.78-0.795,1.293-1.087c0.523-0.299,0.927-0.781,1.266-1.315c0.422-0.665,0.833-0.636,1.255,0.004
		c0.265,0.403,0.75,0.489,1.139,0.567c0.342,0.067,0.373-0.431,0.491-0.716c0.186-0.446,0.524-0.711,1.005-0.768
		c0.17-0.02,0.38,0.021,0.463-0.145c0.479-0.964,1.521-1.175,2.309-1.724c0.125-0.088,0.245-0.182,0.406-0.127
		c0.707,0.249,1.089-0.143,1.364-0.699c0.202-0.409,0.405-0.675,0.824-0.211c0.044,0.051,0.196,0.084,0.229,0.053
		c0.516-0.479,0.947-0.057,1.396,0.123c0.169,0.065,0.362,0.132,0.462-0.039c0.372-0.647,1.227-0.949,1.307-1.801
		c0.16-0.143,0.341-0.271,0.393-0.548c-0.346,0.025-0.417,0.248-0.5,0.456c-0.3,0.438-0.822,0.665-1.089,1.141
		c-0.11,0.194-0.315,0.194-0.495,0.048c-0.23-0.185-0.46-0.372-0.684-0.564c-0.128-0.111-0.267-0.315-0.421-0.223
		c-0.421,0.256-0.608,0.01-0.813-0.286c-0.22-0.317-0.374-0.121-0.531,0.08c-0.584,0.74-0.589,0.742-1.43,0.321
		c-0.153-0.076-0.272-0.076-0.411,0.016c-0.529,0.349-1.005,0.857-1.746,0.587c-0.413,0.627-1.089,0.396-1.662,0.518
		c-0.287,0.061-0.399,0.358-0.546,0.591c-0.186,0.288-0.375,0.312-0.582,0.016c-0.314-0.45-0.849-0.655-1.193-1.104
		c-0.305-0.398-0.794-0.107-1.14,0.122c-0.383,0.258-0.717,0.585-1.078,0.877c-0.078,0.064-0.241,0.168-0.252,0.156
		c-0.46-0.522-0.917,0.157-1.378-0.002c-0.248-0.084-0.372,0.144-0.513,0.298c-0.367,0.401-0.768,0.397-1.182,0.08
		c-0.132-0.102-0.315-0.319-0.422-0.176c-0.617,0.82-1.59,0.146-2.293,0.571c-0.196,0.119-0.358-0.055-0.508-0.172
		c-0.46-0.353-0.906-0.516-1.406-0.031c-0.335,0.326-0.458-0.052-0.617-0.253c0.083-0.002,0.167-0.004,0.25-0.004
		c0.249,0.066,0.345-0.117,0.44-0.278c0.261-0.448,0.786-0.505,1.047-0.275c0.614,0.542,1.1,0.102,1.619-0.055
		c0.245-0.073,0.45-0.231,0.713-0.073c0.098,0.061,0.244,0.049,0.288-0.047c0.292-0.649,0.734-0.528,1.238-0.285
		c0.112,0.053,0.361,0.031,0.424-0.05c0.409-0.53,1.166-0.423,1.603-0.889c0.052-0.057,0.169-0.123,0.217-0.1
		c0.947,0.438,1.002-0.61,1.509-0.898c0.147-0.084,0.193-0.325,0.322-0.462c0.49-0.515,0.969-0.491,1.418,0.053
		c0.28,0.343,0.717,0.493,0.996,0.859c0.188,0.249,0.401,0.004,0.471-0.191c0.24-0.67,0.601-1.101,1.413-0.935
		c0.29,0.059,0.361-0.248,0.456-0.45c0.134-0.287,0.247-0.468,0.665-0.382c0.502,0.103,0.734-0.481,1.166-0.661
		c0.315-0.13,0.518-0.3,0.912-0.153c0.481,0.179,0.922-0.037,1.15-0.53c0.198-0.429,0.415-0.524,0.71-0.09
		c0.073,0.111,0.207,0.26,0.297,0.186c0.558-0.446,0.88,0.103,1.282,0.28c0.294,0.131,0.556,0.265,0.742-0.131
		c0.028-0.043,0.088-0.11,0.078-0.122c-0.091-0.115-0.111,0.02-0.162,0.053c-0.557,0.14-0.674-0.413-0.993-0.64
		c-0.265-0.188-0.41-0.524-0.854-0.364c-0.283,0.104-0.375-0.23-0.487-0.411c-0.179-0.286-0.317-0.351-0.57-0.064
		c-0.529,0.601-0.734,0.624-1.37,0.164c-0.515-0.374-0.848,0.179-1.278,0.239c-0.279,0.039-0.519,0.257-0.804,0.008
		c-0.082-0.074-0.232-0.088-0.29,0.006c-0.302,0.481-0.657,0.419-1.129,0.234c-0.371-0.146-0.676,0.12-0.882,0.459
		c-0.182,0.303-0.383,0.375-0.612,0.018c-0.338-0.525-0.893-0.857-1.227-1.416c-0.244-0.407-0.813-0.266-1.123,0.023
		c-0.335,0.312-0.778,0.433-1.091,0.752c-0.114,0.117-0.267,0.164-0.396,0.033c-0.24-0.24-0.484-0.137-0.777-0.135
		c-0.507,0.004-0.886,0.125-1.303,0.384c-0.279,0.176-0.608-0.041-0.836-0.296c-0.121-0.137-0.293-0.405-0.446-0.247
		c-0.723,0.754-1.606-0.098-2.361,0.274c-0.159,0.078-0.275-0.156-0.396-0.269c-0.432-0.404-0.862-0.8-1.455-0.217
		c-0.215,0.213-0.367,0.012-0.435-0.158c-0.283-0.713-0.589-0.582-1.012-0.097c-0.288,0.331-0.656,0.611-1.162,0.549
		c-0.022-0.021-0.045-0.043-0.068-0.064c0.589-0.43,1.18-0.851,1.653-1.424c0.197-0.24,0.375,0.027,0.477,0.21
		c0.192,0.346,0.378,0.505,0.694,0.102c0.306-0.392,0.814-0.3,1.024-0.053c0.519,0.62,1.068,0.301,1.619,0.205
		c0.184-0.033,0.36-0.174,0.544-0.037c0.309,0.231,0.495,0.098,0.665-0.18c0.188-0.31,0.407-0.339,0.652-0.045
		c0.236,0.281,0.617,0.381,0.859,0.184c0.398-0.325,0.786-0.509,1.307-0.575c0.254-0.031,0.457-0.229,0.729-0.008
		c0.237,0.195,0.364-0.062,0.533-0.173c0.526-0.339,0.952-0.844,1.623-0.95c0.259-0.04,0.482-0.022,0.613,0.211
		c0.271,0.484,0.896,0.551,1.188,1.026c0.142,0.23,0.345,0.082,0.452-0.096c0.323-0.531,0.74-0.809,1.381-0.559
		c0.039,0.016,0.104,0.031,0.123,0.014c0.648-0.641,1.712-0.254,2.342-0.934c0.176-0.189,0.343-0.26,0.608-0.091
		c0.618,0.399,0.93,0.335,1.297-0.276c0.252-0.421,0.447-0.557,0.716-0.035c0.068,0.128,0.189,0.341,0.309,0.274
		c0.63-0.358,0.869,0.221,1.219,0.482c0.397,0.294,0.697,0.359,0.989-0.124c0.124-0.207,0.332-0.365,0.51-0.552
		c-0.202-0.135-0.362-0.026-0.457,0.09c-0.363,0.444-0.631,0.316-0.974-0.051c-0.345-0.368-0.618-0.878-1.276-0.82
		c-0.208,0.018-0.269-0.247-0.351-0.414c-0.185-0.383-0.377-0.577-0.708-0.112c-0.265,0.372-0.707,0.389-0.942,0.104
		c-0.54-0.654-1.139-0.353-1.718-0.21c-0.259,0.064-0.436,0.079-0.633-0.1c-0.07-0.064-0.253-0.128-0.273-0.102
		c-0.433,0.527-0.866,0.203-1.329,0.05c-0.297-0.1-0.572,0.055-0.755,0.341c-0.216,0.335-0.407,0.279-0.607-0.049
		c-0.36-0.588-0.955-0.984-1.277-1.634c-0.201-0.407-0.758-0.364-1.125-0.098c-0.263,0.19-0.554,0.3-0.82,0.463
		c-0.315,0.194-0.494,0.163-0.831-0.039c-0.397-0.239-1.027-0.359-1.414-0.122c-0.598,0.367-0.959,0.226-1.284-0.256
		c-0.253-0.376-0.475-0.459-0.786-0.087c-0.088,0.104-0.228,0.177-0.332,0.061c-0.433-0.486-1.016-0.321-1.542-0.346
		c-0.33-0.014-0.473-0.233-0.69-0.393c-0.404-0.298-0.708-1.026-1.382-0.3c-0.201,0.216-0.295-0.133-0.366-0.278
		c-0.433-0.881-0.431-0.887-1.153-0.25c-0.326,0.287-0.649,0.554-1.132,0.351c-0.041-0.166,0.079-0.249,0.195-0.263
		c0.555-0.066,0.921-0.422,1.259-0.802c0.313-0.352,0.518-0.29,0.7,0.101c0.175,0.373,0.332,0.625,0.759,0.177
		c0.308-0.322,0.792-0.101,0.963,0.146c0.464,0.669,1.081,0.514,1.692,0.45c0.204-0.021,0.377-0.028,0.533,0.114
		c0.235,0.215,0.418,0.129,0.581-0.097c0.226-0.314,0.429-0.258,0.659,0.014c0.394,0.467,0.751,0.489,1.306,0.104
		c0.382-0.266,1.017-0.362,1.515-0.09c0.256,0.14,0.373,0.093,0.609-0.021c0.562-0.271,0.908-0.906,1.619-0.922
		c0.228-0.004,0.466-0.013,0.547,0.216c0.218,0.613,0.824,0.893,1.161,1.396c0.21,0.313,0.417,0.345,0.63,0.02
		c0.317-0.482,0.711-0.648,1.245-0.341c0.071,0.041,0.208,0.098,0.232,0.072c0.623-0.663,1.603-0.174,2.257-0.692
		c0.271-0.214,0.454-0.189,0.714,0.036c0.499,0.433,0.847,0.385,1.274-0.161c0.241-0.308,0.414-0.342,0.599,0.022
		c0.158,0.311,0.361,0.434,0.756,0.411c0.434-0.025,0.578,0.519,0.936,0.704c0.188,0.201,0.35,0.514,0.664,0.172
		c-0.218-0.034-0.389-0.166-0.581-0.248c-0.143-0.306-0.291-0.609-0.426-0.917c-0.172-0.395-0.473-0.573-0.845-0.809
		c-0.577-0.364-0.987-0.819-1.716-0.399c-0.078,0.045-0.316-0.061-0.393-0.162c-0.347-0.464-0.792-0.551-1.34-0.473
		c-0.401,0.058-0.85,0.173-1.155-0.258c-0.011-0.013-0.049-0.027-0.058-0.021c-0.628,0.522-1.042-0.102-1.545-0.273
		c-0.258-0.088-0.43,0.087-0.585,0.284c-0.249,0.313-0.465,0.245-0.608-0.098c-0.275-0.66-0.835-1.145-1.078-1.836
		c-0.206-0.585-0.774-0.59-1.293-0.511c-0.352,0.053-0.693,0.179-1.038,0.279c-0.125,0.037-0.251,0.089-0.368,0.012
		c-0.649-0.43-1.333-0.502-2.102-0.353c-0.425,0.083-0.812-0.168-0.97-0.65c-0.123-0.372-0.313-0.657-0.69-0.191
		c-0.12,0.146-0.271,0.174-0.365,0.011c-0.342-0.591-1.017-0.598-1.536-0.87c-0.199-0.105-0.332-0.239-0.478-0.39
		c-0.424-0.438-0.819-0.946-1.565-0.627c-0.188,0.08-0.304-0.098-0.406-0.236c0.03-0.046,0.061-0.092,0.091-0.138
		c0.106,0.092,0.228,0.136,0.346,0.043c0.521-0.408,0.966-0.117,1.285,0.237c0.317,0.35,0.634,0.472,1.089,0.488
		c0.401,0.014,0.865-0.092,1.184,0.309c0.072,0.091,0.217,0.068,0.287-0.015c0.468-0.545,0.686-0.13,0.964,0.213
		c0.314,0.387,0.683,0.611,1.093,0.094c0.169-0.211,0.348-0.211,0.543-0.039c0.116,0.103,0.249,0.195,0.398,0.087
		c0.281-0.205,0.457-0.103,0.615,0.16c0.194,0.321,0.388,0.209,0.682,0.063c0.477-0.237,0.815-0.749,1.445-0.705
		c0.387,0.028,0.663,0.147,0.756,0.536c0.169,0.699,0.8,1.075,1.153,1.644c0.155,0.25,0.359,0.169,0.527-0.009
		c0.165-0.173,0.34-0.351,0.594-0.32c0.521,0.063,1.052,0.502,1.548-0.061c0.353,0.321,0.741,0.287,1.163,0.151
		c0.501-0.16,0.967-0.233,1.425,0.227c0.238,0.238,0.681,0.208,0.979-0.112c0.113-0.122,0.293-0.311,0.421-0.132
		c0.519,0.728,1.66,0.698,1.988,1.677c0.133,0.397,0.419,0.401,0.777,0.066c0.442-0.415,0.841-0.933,1.506-1.052
		c0.002,0.149,0.101,0.149,0.208,0.13c0.016-0.002,0.042-0.033,0.039-0.04c-0.056-0.119-0.161-0.086-0.257-0.079
		c-0.127-0.221-0.32-0.301-0.531-0.15c-0.365,0.261-0.84,0.087-1.211,0.342c-0.163,0.112-0.318-0.066-0.431-0.19
		c-0.353-0.382-0.7-0.78-1.038-1.167c-0.386-0.445-0.729-0.839-0.885-1.414c-0.064-0.246-0.315-0.317-0.579-0.181
		c-0.396,0.206-0.834,0.096-1.061-0.18c-0.417-0.509-0.953-0.486-1.49-0.51c-0.304-0.014-0.602-0.209-0.822-0.202
		c-0.704,0.023-1.251-0.321-1.851-0.552c-0.055-0.02-0.146-0.024-0.186,0.006c-0.74,0.577-0.928-0.116-1.202-0.532
		c-0.23-0.35-0.472-0.721-0.577-1.117c-0.163-0.618-0.585-0.94-1.087-1.241c-0.195-0.117-0.336-0.157-0.501,0.015
		c-0.304,0.318-0.729,0.144-1.089,0.254c-0.229,0.071-0.287-0.193-0.356-0.367c-0.177-0.434-1.127-1.095-1.541-0.985
		c-0.611,0.163-1.022-0.118-1.435-0.471c-0.095-0.082-0.257-0.233-0.296-0.208c-0.597,0.372-0.745-0.136-1.063-0.443
		c-0.216-0.21-0.62-0.239-0.946-0.328c-0.71-0.192-0.87-0.408-0.84-1.391c0.158,0.683,0.507,0.881,1.001,1.002
		c0.392,0.096,0.953,0.438,1.143,0.391c0.869-0.212,1.223,0.38,1.711,0.804c0.057,0.049,0.201,0.092,0.235,0.061
		c0.513-0.448,1.008,0.078,1.51,0.019c0.081-0.009,0.196-0.015,0.245,0.03c0.586,0.548,1.187,0.196,1.777,0.028
		c0.534-0.153,1.123,0.052,1.429,0.529c0.306,0.479,0.61,0.961,0.914,1.443c0.189,0.302,0.388,0.523,0.742,0.178
		c0.141-0.137,0.326-0.196,0.53-0.159c0.511,0.094,0.971,0.657,1.545,0.167c0.36,0.448,0.878,0.379,1.325,0.292
		c0.515-0.1,0.788,0.029,1.088,0.452c0.26,0.366,0.711,0.584,1.146,0.15c0.273-0.271,0.462-0.182,0.568,0.117
		c0.173,0.487,0.336,0.924,0.971,0.998c0.177,0.021,0.328,0.309,0.48,0.485c0.383,0.442,0.717,0.865,1.413,0.394
		c0.59-0.399,1.307-0.405,2.007-0.275c0.068,0.045,0.135,0.092,0.202,0.137c-0.183-0.375-1.109-0.909-1.49-0.772
		c-0.381,0.137-0.757-0.007-1.131,0.099c-0.327,0.092-0.542-0.125-0.605-0.418c-0.182-0.839-0.437-1.616-1.268-2.066
		c-0.25-0.136-0.192-0.454-0.273-0.687c-0.171-0.504-0.388-0.844-1.04-0.76c-0.548,0.071-1.049-0.096-1.258-0.722
		c-0.171-0.514-0.697-0.303-1.05-0.41c-0.385-0.117-0.796-0.106-1.013-0.531c-0.104-0.201-0.26-0.126-0.435-0.063
		c-0.324,0.117-0.42-0.123-0.446-0.368c-0.028-0.282,0.139-0.496,0.413-0.396c0.423,0.155,0.582-0.026,0.584-0.379
		c0.001-0.348-0.207-0.485-0.561-0.343c-0.251,0.101-0.392-0.072-0.535-0.234c-0.331-0.377-0.718-0.588-1.237-0.408
		c-0.413,0.143-0.597-0.156-0.745-0.428c-0.45-0.826-1.28-1.208-2.014-1.681c-0.283-0.183-0.74,0.035-1.111-0.092
		c-0.096-0.033-0.279,0.022-0.304-0.025c-0.323-0.592-0.927-0.813-1.432-1.178c-0.269-0.195-0.35-0.436-0.81-0.471
		c-0.438-0.034-0.827-0.563-0.7-1.174l-0.01,0.016c0.357,0.226,0.599,0.883,1.179,0.3c0.059-0.061,0.182,0.076,0.232,0.169
		c0.154,0.284,0.36,0.458,0.713,0.418c0.167-0.019,0.264,0.111,0.341,0.246c0.121,0.212,0.081,0.577,0.379,0.611
		c0.348,0.041,0.723,0.005,1.065-0.079c0.751-0.186,1.375,0.072,1.585,0.798c0.178,0.621,0.604,0.996,1.091,1.344
		c0.035,0.024,0.077,0.077,0.102,0.07c0.797-0.229,1.533,0.198,2.305,0.198c0.15,0,0.341-0.062,0.417,0.059
		c0.378,0.608,1,0.435,1.537,0.476c0.296,0.022,0.453,0.189,0.657,0.335c0.396,0.283,0.788,0.622,1.317,0.248
		c0.189-0.134,0.328-0.019,0.419,0.139c0.105,0.182,0.289,0.394,0.261,0.564c-0.149,0.909,0.312,1.435,1.05,1.826
		c0.088,0.047,0.155,0.145,0.217,0.229c0.713,0.959,0.908,1.014,2.07,0.577c0.635-0.239,1.881,0.293,2.295,1.077
		c0.262,0.494,0.589,0.786,1.131,0.86c0.215-0.948,0.092-1.156-0.771-1.516c-0.379-0.158-0.779-0.305-0.871-0.828
		c-0.061-0.34-0.366-0.562-0.714-0.662c-0.277-0.079-0.448-0.23-0.448-0.533c0-0.28,0.158-0.414,0.413-0.485
		c0.237-0.066,0.445-0.192,0.446-0.469c0.001-0.312-0.223-0.451-0.467-0.617c-0.599-0.405-1.266-0.439-1.94-0.423
		c-0.396,0.01-0.679-0.117-0.81-0.471c-0.167-0.451-0.528-0.68-0.944-0.768c-0.575-0.12-0.824-0.462-0.901-0.99
		c-0.057-0.388-0.222-0.525-0.671-0.55c-0.513-0.027-1.039-0.236-1.041-0.956c-0.001-0.326-0.211-0.635-0.199-0.983
		c0.004-0.091-0.067-0.25-0.137-0.271c-0.984-0.296-0.943-1.459-1.711-1.969c-0.362-0.239-0.379-0.757-0.975-1.005
		c-0.662-0.276-1.124-1.053-2.035-1.007c0.651-0.259,1.249-0.285,1.819,0.084c0.165,0.107,0.338,0.174,0.542,0.091
		c0.172-0.071,0.378-0.067,0.455,0.104c0.306,0.68,0.979,0.574,1.526,0.709c0.253,0.061,0.504,0.123,0.518,0.375
		c0.033,0.628,0.601,0.839,0.911,1.247c0.156,0.204,0.319,0.131,0.472-0.046c0.229-0.264,0.431-0.113,0.431,0.131
		c-0.002,1.211,1.068,1.91,1.413,2.968c0.15,0.458,0.573,0.865,0.786,1.351c0.091,0.209,0.28,0.243,0.483,0.137
		c0.357-0.184,0.815,0.078,1.142-0.258c0.022-0.023,0.129,0.004,0.174,0.038c0.97,0.737,2.208,1.034,3.118,1.87
		c0.047,0.043,0.112,0.108,0.158,0.101c0.847-0.136,1.38,0.63,2.159,0.724c0.655,0.079,0.714,0.333,0.301,0.88
		c-0.241,0.027-0.612-0.003-0.489,0.361c0.09,0.265,0.376,0.515,0.75,0.274c-0.028-0.419,0.184-0.67,0.562-0.822
		c0.458-0.184,0.468-0.51,0.125-0.771c-1.008-0.766-1.896-1.749-3.295-1.852c-0.339-0.024-0.676-0.261-0.832-0.547
		c-0.459-0.843-0.889-1.676-1.084-2.665c-0.176-0.889-0.134-1.802-0.556-2.705c-0.527-1.125-1.352-1.405-2.382-1.719
		c-1.05-0.32-1.981-0.925-2.344-2.086c-0.072-0.232,0.028-0.401,0.123-0.594c0.225-0.459,0.292-0.92-0.041-1.369
		c-0.063-0.084-0.147-0.191-0.138-0.279c0.098-0.893-0.429-1.204-1.198-1.36c-0.302-0.061-0.577-0.259-0.859-0.405
		c-0.092-0.047-0.247-0.146-0.237-0.19c0.184-0.749-0.571-0.679-0.875-0.996c-0.23-0.241-0.691-0.355-0.416-0.839
		c0.174,0.107,0.349,0.214,0.523,0.322c0.086,0.195,0.175,0.412,0.396,0.467c0.56,0.141,0.936,0.377,0.958,1.045
		c0.009,0.266,0.446,0.392,0.684,0.352c0.91-0.152,1.311,0.462,1.687,1.062c0.222,0.352,0.396,0.733,0.658,1.066
		c0.18,0.229,0.231,0.598,0.123,0.785c-0.395,0.675,0.109,1.145,0.297,1.684c0.13,0.369,0.39,0.551,0.822,0.562
		c0.951,0.022,1.888,0.139,2.723,0.662c0.255,0.16,0.498,0.318,0.614,0.615c0.091,0.234,0.284,0.371,0.521,0.427
		c0.294,0.069,0.425,0.24,0.439,0.535c0.012,0.3,0.162,0.611,0.455,0.602c0.671-0.021,0.702,0.454,0.751,0.875
		c0.054,0.466,0.383,0.74,0.571,1.087c0.3,0.552,0.771,0.991,1.13,1.412c0.648,0.758,0.909,1.864,2.002,2.29
		c0.59,0.23,1.185,0.045,1.744,0.252c0.055,0.029,0.109,0.06,0.164,0.089c0.071,0.214,0.081,0.455,0.283,0.609
		c0.029,0.02,0.057,0.04,0.086,0.06c0.033-0.063,0.016-0.104-0.054-0.121c0.032-0.256,0.016-0.497-0.222-0.665
		c-0.061-0.016-0.122-0.031-0.183-0.046c-0.27-0.188-0.576-0.241-0.897-0.255c-0.595-0.025-0.969-0.305-0.998-0.923
		c-0.016-0.359-0.164-0.602-0.419-0.869c-0.382-0.403-0.019-0.957-0.134-1.435c-0.204-0.843,0.056-1.713-0.204-2.572
		c-0.142-0.466-0.158-0.917-0.506-1.344c-0.302-0.37-0.583-0.65-1.041-0.744c-1.087-0.222-1.83-0.876-2.371-1.806
		c-0.217-0.375,0.034-0.541,0.306-0.596c0.492-0.099,0.655-0.414,0.71-0.842c0.058-0.453-0.278-0.556-0.604-0.687
		c-0.174-0.07-0.226-0.217-0.187-0.417c0.124-0.646-0.163-1.039-0.784-1.237c-0.452-0.144-1.022-0.221-0.738-0.946
		c0.017-0.043-0.024-0.13-0.064-0.169c-0.538-0.52-0.624-1.033-0.007-1.559c0.141-0.121,0.088-0.27-0.008-0.397
		c-0.253-0.336-0.508-0.671-0.765-1.005c-0.063-0.083-0.204-0.181-0.188-0.24c0.28-1.006-0.694-0.827-1.116-1.156
		c-0.171-0.133-0.465-0.088-0.612-0.443c0.399,0.015,0.759-0.07,1.052,0.248c0.182,0.197,0.423,0.273,0.665,0.359
		c0.364,0.128,0.566,0.325,0.616,0.77c0.072,0.636,0.604,1.037,1.095,1.375c0.394,0.271,0.409,0.402,0.023,0.671
		c-0.442,0.309-0.425,0.707,0.03,1.007c0.328,0.217,0.658,0.379,0.535,0.881c-0.061,0.25,0.178,0.376,0.408,0.379
		c0.56,0.006,1.011,0.318,1.496,0.514c0.4,0.162,0.807,0.418,0.767,0.975c-0.015,0.204,0.105,0.361,0.248,0.495
		c0.481,0.45,0.439,0.95,0.058,1.404c-0.252,0.299-0.146,0.46,0.002,0.758c0.616,1.239,1.665,1.758,2.971,1.923
		c0.47,0.06,1.002,0.759,1.033,1.351c0.013,0.241-0.006,0.507,0.229,0.617c0.538,0.25,0.531,0.717,0.528,1.181
		c-0.004,0.568,0.354,1.06,0.305,1.644c-0.057,0.681,0.161,1.202,0.939,1.368c0.163,0.034,0.279,0.293,0.436,0.472
		c0.296-0.344,0.154-0.548-0.109-0.708c-0.314-0.191-0.194-0.393-0.183-0.701c0.021-0.534,0.68-1.01,0.172-1.578
		c-0.013-0.014-0.029-0.046-0.022-0.057c0.438-0.68,0.384-1.41,0.248-2.157c-0.017-0.091,0.18-0.272,0.078-0.334
		c-0.488-0.3-0.479-1.03-1.13-1.201c-0.405-0.106-0.791-0.313-1.157-0.523c-0.33-0.189-0.659-0.421-0.601-0.886
		c0.022-0.181-0.036-0.334-0.158-0.463c-0.25-0.268-0.128-0.442,0.134-0.603c0.26-0.158,0.422-0.399,0.587-0.652
		c0.22-0.334,0.291-0.594-0.093-0.85c-0.174-0.117-0.192-0.294-0.154-0.507c0.163-0.904,0.047-1.083-0.84-1.389
		c-0.16-0.056-0.323-0.106-0.48-0.167c-0.225-0.088-0.345-0.225-0.084-0.395c0.342-0.223,0.263-0.385-0.044-0.536
		c-0.286-0.141-0.49-0.314-0.454-0.68c0.037-0.378,0.331-0.455,0.603-0.568c0.736-0.309,0.74-0.35,0.123-0.877
		c-0.242-0.207-0.475-0.424-0.709-0.639c-0.11-0.101-0.278-0.241-0.204-0.367c0.347-0.603-0.135-0.752-0.496-1.009
		c-0.352-0.25-0.557-0.608-0.678-1.037c-0.145-0.514-0.539-0.977,0.177-1.445c0.21-0.137,0.135-0.707,0.191-1.077
		c0.036-0.037,0.071-0.074,0.107-0.111c0.321,0.35,0.35,1.072,0.011,1.436c-0.234,0.251-0.271,0.464-0.039,0.711
		c0.136,0.146,0.16,0.345,0.253,0.501c0.313,0.517,0.584,1.062,1.333,1.131c0.441,0.041,0.863,0.145,0.774,0.874
		c-0.05,0.4,0.388,0.917,0.835,1.187c0.391,0.235,0.471,0.387,0.027,0.648c-0.642,0.378-0.634,0.88-0.003,1.302
		c0.141,0.095,0.366,0.178,0.287,0.362c-0.319,0.736,0.343,0.736,0.701,0.903c0.322,0.148,0.827,0.129,0.95,0.444
		c0.259,0.659,0.551,1.33,0.592,2.052c0.021,0.368-0.19,0.622-0.562,0.753c-0.401,0.142-0.564,0.348-0.064,0.603
		c0.134,0.068,0.279,0.146,0.301,0.305c0.146,1.025,0.964,1.258,1.776,1.436c0.81,0.177,1.294,1.005,1.541,1.776
		c0.268,0.834-0.074,1.661,0.256,2.458c0.14,0.337-0.217,0.783,0.22,1.228c-0.063-0.594,0.464-0.956,0.275-1.551
		c-0.123-0.386,0.295-0.668,0.392-1.036c0.071-0.265,0.242-0.491,0.018-0.758c-0.047-0.056-0.08-0.208-0.05-0.23
		c0.557-0.431-0.012-0.797-0.047-1.195c-0.053-0.595-0.559-0.672-0.937-0.817c-0.868-0.334-1.011-1.076-1.169-1.82
		c-0.057-0.269,0.219-0.354,0.397-0.426c0.375-0.152,0.758-0.361,0.799-0.748c0.074-0.702,0.078-1.423-0.001-2.123
		c-0.036-0.313-0.483-0.36-0.774-0.483c-0.299-0.127-0.646-0.258-0.253-0.662c0.173-0.178,0.072-0.34-0.052-0.504
		c-0.374-0.49-0.213-0.906,0.279-1.147c0.562-0.275,0.697-0.542,0.233-1.029c-0.152-0.16-0.219-0.404-0.391-0.569
		c-0.093-0.088-0.219-0.233-0.144-0.327c0.524-0.651-0.067-0.833-0.459-1.061c-0.689-0.402-0.579-1.167-0.845-1.758
		c-0.085-0.19,0.196-0.293,0.357-0.386c0.237-0.136,0.422-0.275,0.564-0.551c0.307-0.592,0.207-0.899-0.392-1.239
		c-0.385-0.219-1.031-0.517-0.447-1.272c0.204-0.263-0.139-0.845-0.143-1.303c-0.001-0.213-0.031-0.357,0.176-0.458l-0.007-0.009
		c0.303,0.474-0.026,1.181,0.612,1.55c0.221,0.128-0.007,0.282-0.135,0.383c-0.328,0.258-0.211,0.431,0.086,0.622
		c0.408,0.261,0.799,0.55,1.184,0.843c0.221,0.169,0.127,0.974-0.132,1.253c-0.167,0.18-0.544,0.256-0.483,0.533
		c0.092,0.417,0.265,0.835,0.49,1.2c0.181,0.297,0.475,0.536,0.749,0.765c0.247,0.206,0.351,0.365,0.273,0.738
		c-0.11,0.521,0.346,0.919,0.645,1.284c0.279,0.339,0.224,0.456-0.085,0.667c-0.51,0.347-0.6,0.79-0.213,1.295
		c0.078,0.103,0.191,0.226,0.131,0.339c-0.385,0.712,0.163,0.735,0.615,0.872c0.797,0.24,0.966,0.552,0.74,1.334
		c-0.058,0.198,0.002,0.304,0.145,0.432c0.476,0.427,0.458,0.802-0.045,1.203c-0.115,0.092-0.249,0.163-0.378,0.235
		c-0.355,0.2-0.426,0.294-0.308,0.843c0.293,1.36,1.399,1.354,2.285,1.73c0.739,0.313,1.145,0.898,1.029,1.698
		c-0.013,0.093,0.012,0.227,0.073,0.289c0.44,0.445-0.023,0.875-0.006,1.311c-0.021,0.032-0.068,0.077-0.06,0.094
		c0.042,0.084,0.099,0.034,0.149,0c0.331-0.439,0.832-0.811,0.583-1.48c-0.024-0.064,0.017-0.166,0.052-0.237
		c0.411-0.822,0.199-1.43-0.65-1.837c-0.328-0.157-0.634-0.34-0.896-0.597c-0.182-0.177-0.147-0.387-0.191-0.605
		c-0.177-0.879,0.414-1.101,0.998-1.465c0.39-0.243,0.926-0.641,0.425-1.283c-0.1-0.128,0.039-0.271,0.115-0.399
		c0.435-0.728,0.375-0.93-0.364-1.261c-0.384-0.172-0.923-0.28-0.276-0.805c0.148-0.12,0.07-0.27-0.026-0.394
		c-0.381-0.491-0.116-0.829,0.288-1.102c0.924-0.623,0.938-0.621,0.301-1.606c-0.143-0.221-0.253-0.399-0.016-0.602
		c0.314-0.268,0.203-0.479-0.097-0.633c-0.848-0.436-0.637-1.293-0.814-1.993c-0.031-0.124,0.112-0.22,0.231-0.274
		c0.4-0.181,0.622-0.49,0.866-0.86c0.307-0.464,0.255-0.672-0.164-0.951c-0.206-0.137-0.35-0.366-0.513-0.561
		c-0.08-0.095-0.208-0.253-0.114-0.332c0.657-0.542,0.28-1.294,0.426-1.937c0.08-0.355,0.4-0.392,0.726-0.67
		c-0.223,0.732-0.26,1.324-0.059,1.916c0.025,0.074,0.03,0.191-0.012,0.243c-0.501,0.626,0.016,0.963,0.392,1.307
		c0.469,0.429,0.534,1.057,0.107,1.532c-0.191,0.213-0.677,0.273-0.584,0.595c0.17,0.583,0.084,1.279,0.653,1.717
		c0.372,0.284,0.843,0.463,0.483,1.143c-0.104,0.198,0.334,0.724,0.585,1.052c0.256,0.333,0.159,0.5-0.149,0.703
		c-0.745,0.492-0.768,0.593-0.413,1.361c0.057,0.12,0.125,0.248,0.035,0.354c-0.437,0.516-0.008,0.627,0.354,0.783
		c0.853,0.368,0.911,0.497,0.562,1.324c-0.062,0.148-0.087,0.264-0.006,0.414c0.316,0.579,0.174,1.018-0.429,1.397
		c-0.256,0.163-0.788,0.261-0.662,0.566c0.209,0.506-0.098,1.236,0.627,1.53c0.215,0.087,0.402,0.289,0.618,0.317
		c0.846,0.111,0.87,0.919,1.263,1.41c0.09,0.113-0.018,0.239-0.106,0.333c-0.12,0.127-0.268,0.282-0.141,0.441
		c0.28,0.347,0.117,0.658-0.072,0.928c-0.364,0.517-0.311,1.084-0.287,1.668c0.265,0.011,0.505-0.155,0.486-0.37
		c-0.046-0.54,0.339-0.834,0.573-1.22c0.466-0.774,0.714-1.609,0.704-2.519c-0.004-0.33-0.252-0.424-0.467-0.537
		c-0.386-0.203-0.769-0.434-0.901-0.853c-0.116-0.368,0.208-0.741,0.084-1.158c-0.047-0.163,0.226-0.297,0.401-0.356
		c0.469-0.156,0.791-0.486,1.101-0.837c0.082-0.093,0.226-0.25,0.196-0.304c-0.275-0.536,0.091-0.876,0.318-1.291
		c0.231-0.415,0.002-0.719-0.431-0.879c-0.436-0.161-0.721-0.36-0.177-0.757c0.13-0.094,0.183-0.238,0.097-0.393
		c-0.361-0.644,0.105-0.933,0.547-1.199c0.872-0.525,0.907-0.57,0.459-1.494c-0.126-0.257-0.234-0.454,0.045-0.653
		c0.351-0.25,0.266-0.445-0.035-0.686c-0.451-0.361-0.679-1.521-0.418-2.009c0.056-0.101,0.18-0.202,0.289-0.229
		c0.629-0.156,0.797-0.787,1.226-1.145c0.198-0.167,0.078-0.354-0.091-0.477c-0.244-0.181-0.437-0.397-0.583-0.662
		c-0.073-0.13-0.196-0.312-0.075-0.406c0.66-0.512,0.42-1.387,0.81-1.952c0.339-0.492,0.771-0.965,1.213-1.4L55.313,0.81
		c0.029,0.452-0.11,0.79-0.51,1.076c-0.482,0.346-0.329,0.931-0.339,1.422c-0.006,0.179,0.122,0.371-0.07,0.504
		c-0.507,0.345-0.28,0.659,0.02,0.979c0.059,0.062,0.117,0.123,0.173,0.188c0.169,0.206,0.62,0.34,0.508,0.581
		c-0.179,0.381-0.313,0.825-0.69,1.103c-0.228,0.167-0.702,0.204-0.625,0.541c0.141,0.604-0.071,1.341,0.573,1.783
		c0.36,0.248,0.785,0.456,0.22,0.924c-0.104,0.088-0.071,0.255,0.028,0.346c0.267,0.242,0.271,0.616,0.477,0.885
		c0.195,0.256,0.095,0.422-0.151,0.556c-0.207,0.111-0.423,0.206-0.61,0.343c-0.264,0.197-0.519,0.492-0.343,0.804
		c0.21,0.374,0.254,0.625-0.101,0.919c-0.149,0.124-0.014,0.271,0.129,0.347c0.148,0.081,0.309,0.143,0.462,0.215
		c0.614,0.292,0.719,0.586,0.345,1.139c-0.172,0.253-0.3,0.453-0.054,0.721c0.156,0.168,0.097,0.34-0.029,0.515
		c-0.281,0.382-0.599,0.703-1.066,0.867c-0.357,0.124-0.391,0.329-0.445,0.761c-0.142,1.166,0.69,1.33,1.376,1.702
		c0.508,0.276,0.76,1.145,0.444,1.607c-0.073,0.106-0.185,0.208-0.137,0.337c0.231,0.641-0.249,1.021-0.55,1.452
		c-0.182,0.255-0.291,0.458,0.029,0.756c0.021-0.551,0.378-0.745,0.77-0.989c0.438-0.272,0.985-0.549,0.949-1.229
		c-0.004-0.084,0.087-0.221,0.165-0.253c0.648-0.26,0.232-0.905,0.484-1.315c0.087-0.143-0.169-0.256-0.311-0.344
		c-0.27-0.168-0.563-0.308-0.804-0.51c-0.301-0.251-0.344-0.444-0.209-0.947c0.257-0.955,1.011-0.948,1.59-1.336
		c0.403-0.272,1.094-0.5,0.807-1.277c-0.071-0.192,0.146-0.274,0.271-0.383c0.76-0.655,0.734-0.954-0.142-1.404
		c-0.364-0.186-0.418-0.36-0.022-0.543c0.306-0.14,0.473-0.283,0.363-0.674c-0.134-0.467,0.206-0.758,0.576-0.945
		c1.177-0.595,0.831-0.43,0.777-1.606c-0.004-0.123-0.098-0.316-0.049-0.357c0.573-0.477,0.252-0.923,0.006-1.404
		c-0.196-0.388,0.138-0.787,0.083-1.168c-0.083-0.576,0.382-0.64,0.693-0.847c0.364-0.244,0.546-0.638,0.851-0.932
		c0.212-0.206,0.044-0.42-0.093-0.62c-0.313-0.445-0.567-0.828,0.047-1.324c0.351-0.283,0.234-0.929,0.531-1.355
		c0.147-0.212,0.24-0.384,0.525-0.33L62.22,2.079c-0.204,0.659-0.103,1.397-0.712,1.953c-0.422,0.383,0.031,0.781,0.32,0.982
		c0.523,0.361,0.593,0.558,0.062,1.016c-0.356,0.308-0.635,0.695-1.085,0.923c-0.371,0.188-0.341,1.562,0.057,1.949
		c0.347,0.338,0.691,0.591,0.136,1.032c-0.159,0.128-0.01,0.302,0.056,0.458c0.419,0.994,0.397,1.024-0.49,1.563
		c-0.416,0.253-0.771,0.566-0.494,1.128c0.103,0.209,0.059,0.371-0.118,0.498c-0.368,0.265-0.264,0.451,0.07,0.652
		c0.771,0.463,0.788,0.568,0.298,1.312c-0.081,0.124-0.219,0.241-0.172,0.393c0.308,0.99-0.464,1.288-1.094,1.618
		c-0.749,0.391-0.922,1.493-0.259,2.016c0.168,0.13,0.354,0.232,0.536,0.342c0.585,0.355,0.775,1.172,0.342,1.719
		c-0.257,0.323,0.019,0.714-0.247,1.013c-0.699,0.788-1.05,1.791-1.649,2.64c-0.071,0.1-0.191,0.167-0.288,0.25
		c-0.366,0.256-0.196,0.476,0.059,0.744c0.083-0.258,0.15-0.468,0.218-0.68c0.775-0.389,1.391-0.938,1.719-1.754
		c0.081-0.206,0.194-0.377,0.359-0.512c0.642-0.531,0.817-1.381,1.407-1.974c0.419-0.417,0.178-1.216-0.297-1.628
		c-0.396-0.343-0.653-0.695-0.114-1.136c0.074-0.061,0.153-0.179,0.147-0.266c-0.033-0.611,0.392-0.739,0.854-0.796
		c0.817-0.101,1.37-0.752,2.128-0.972c0.052-0.015,0.131-0.093,0.126-0.132c-0.106-0.733,0.521-0.984,0.91-1.398
		c0.264-0.28,0.22-0.526-0.17-0.679c-0.211-0.083-0.51-0.136-0.502-0.415c0.008-0.267,0.303-0.324,0.514-0.413
		c0.232-0.098,0.301-0.242,0.281-0.495c-0.037-0.511,0.284-0.817,0.708-1.019c0.956-0.457,1.055-0.544,0.939-1.523
		c-0.045-0.401,0.06-0.586,0.39-0.737c0.355-0.161,0.406-0.376,0.127-0.685c-0.309-0.343-0.161-0.708-0.063-1.117
		c0.276-1.158,1.487-1.331,2.116-2.098C69.388,5.888,69.429,5.926,69.47,5.964z M49.606,24.954c0.021-0.023,0.042-0.046,0.061-0.069
		c-0.02,0.021-0.038,0.044-0.058,0.066c0.015,0.002,0.029,0.004,0.043,0.006c-0.015,0.015-0.031,0.03-0.046,0.045
		C49.605,24.988,49.604,24.972,49.606,24.954z M26.884,38.272c0.077,0.024,0.169,0.068,0.099-0.081
		c-0.041-0.149-0.121-0.253-0.29-0.25c-0.02,0.001-0.06,0.077-0.054,0.083C26.717,38.11,26.802,38.191,26.884,38.272z M67.46,68.892
		c-0.064,0.018-0.126,0.02-0.132,0.035c-0.025,0.099,0.048,0.153,0.124,0.188c0.024,0.012,0.071-0.016,0.105-0.025
		C67.525,69.021,67.492,68.953,67.46,68.892z M37.195,73.618c0.076-0.118,0.131-0.181,0.153-0.253
		c0.011-0.037-0.038-0.092-0.06-0.139c-0.051,0.061-0.115,0.113-0.148,0.182C37.124,73.443,37.163,73.504,37.195,73.618z
		 M53.365,75.524c-0.029-0.053-0.042-0.105-0.069-0.115c-0.078-0.025-0.115,0.037-0.121,0.102c-0.002,0.033,0.033,0.07,0.051,0.104
		C53.271,75.585,53.319,75.554,53.365,75.524z M65.568,71.779c-0.097-0.02-0.138,0.018-0.136,0.084
		c0.002,0.03,0.041,0.085,0.063,0.085c0.043,0.002,0.091-0.025,0.134-0.041C65.607,71.861,65.584,71.814,65.568,71.779z
		 M35.614,29.023c-0.036-0.018-0.067-0.047-0.099-0.046c-0.031,0.001-0.061,0.032-0.09,0.05c0.031,0.016,0.062,0.045,0.094,0.045
		C35.549,29.071,35.58,29.042,35.614,29.023z M54.158,24.479l0.05-0.023l-0.048-0.022L54.158,24.479z"/>
	<path fill-rule="evenodd" fill="#01A79B" d="M12.744,16.481c0.34,1.177,0.228,2.499,1.431,3.279
		c-0.625-0.059-0.934-0.43-1.099-0.922c-0.106-0.316-0.232-0.57-0.571-0.698c-0.166-0.063-0.418-0.255-0.22-0.417
		C12.688,17.393,12.767,16.995,12.744,16.481z"/>
	<path fill-rule="evenodd" fill="#157972" d="M85.004,79.227c-0.065,0.229,0.299,0.503,0.004,0.678
		c-0.26,0.154-0.619,0.207-0.905,0.086c-0.368-0.154-0.087-0.522-0.157-0.783c0.183,0.01,0.366,0.02,0.551,0.027
		c0.025,0.049,0.043,0.129,0.08,0.136c0.107,0.027,0.091-0.085,0.127-0.14C84.804,79.229,84.903,79.229,85.004,79.227z"/>
	<path fill-rule="evenodd" fill="#157972" d="M73.864,91.861c0.076-0.002,0.153-0.004,0.229-0.004c0.62,0.31,0.856,0.842,0.881,1.5
		C74.61,92.851,74.289,92.318,73.864,91.861z"/>
	<path fill-rule="evenodd" fill="#157972" d="M25.916,79.197c-0.042-0.376,0.109-0.589,0.499-0.657
		c0.267-0.048,0.523-0.151,0.786-0.229C26.807,78.655,26.493,79.113,25.916,79.197z"/>
	<path fill-rule="evenodd" fill="#157972" d="M47.675,0c0.083,0.505-0.08,0.875-0.123,1.255c-0.013,0.115-0.037,0.279-0.213,0.228
		c-0.146-0.043-0.144-0.21-0.111-0.32C47.336,0.799,47.406,0.415,47.675,0z"/>
	<path fill-rule="evenodd" fill="#157972" d="M94.994,32.32c0.061-0.132,0.128-0.264,0.186-0.398
		c0.265-0.617,0.322-0.634,1.049-0.231c-0.483,0.138-0.909,0.288-1.103,0.736C95.081,32.392,95.037,32.357,94.994,32.32z"/>
	<path fill-rule="evenodd" fill="#157972" d="M0.722,37.844c0.281-0.182,0.583-0.338,0.838-0.552
		c0.482-0.401,0.627-0.099,0.847,0.418c-0.695-0.448-1.131,0.261-1.692,0.127L0.722,37.844z"/>
	<path fill-rule="evenodd" fill="#157972" d="M62.212,25.784c0.039,0.485-0.264,0.601-0.667,0.61
		C61.514,25.918,61.638,25.607,62.212,25.784z"/>
	<path fill-rule="evenodd" fill="#157972" d="M39.286,1.745c0.063-0.357,0.107-0.601,0.155-0.872
		C39.8,1.291,39.789,1.403,39.286,1.745z"/>
	<path fill-rule="evenodd" fill="#157972" d="M31.016,31.24c-0.374,0.241-0.661-0.009-0.75-0.274
		c-0.124-0.364,0.248-0.333,0.489-0.361C30.731,30.861,30.763,31.095,31.016,31.24z"/>
	<path fill-rule="evenodd" fill="#157972" d="M10.917,81.791c-0.054,0.11-0.104,0.228-0.164,0.337
		c-0.103,0.187-0.263,0.272-0.472,0.202c-0.069-0.023-0.163-0.099-0.167-0.157c-0.016-0.236,0.217-0.207,0.35-0.285
		c0.107-0.065,0.211-0.134,0.317-0.202C10.827,81.721,10.872,81.756,10.917,81.791z"/>
	<path fill-rule="evenodd" fill="#157972" d="M18.09,12.363c-0.174-0.107-0.349-0.214-0.523-0.322c0.245-0.248,0.617-0.299,0.84-0.6
		C18.467,11.84,18.035,12.009,18.09,12.363z"/>
	<path fill-rule="evenodd" fill="#01A79B" d="M91.341,24.751c-0.158,0.519-0.642,0.705-1.026,0.996
		c-0.04-0.036-0.08-0.073-0.121-0.11c0.165-0.515,0.752-0.608,1.029-1.01C91.262,24.668,91.301,24.709,91.341,24.751z"/>
	<path fill-rule="evenodd" fill="#157972" d="M73.609,32.145c-0.018-0.44,0.166-0.683,0.641-0.636
		C74.293,31.976,74.063,32.173,73.609,32.145z"/>
	<path fill-rule="evenodd" fill="#157972" d="M89.321,27.831c-0.021,0.001-0.044,0.008-0.063,0.003
		c-0.241-0.052-0.683,0.139-0.681-0.207c0.002-0.429,0.45-0.163,0.698-0.221C89.289,27.549,89.306,27.69,89.321,27.831z"/>
	<path fill-rule="evenodd" fill="#157972" d="M45.226,98.831c0.445,0.319,0.283,0.668,0.025,1.159
		c-0.034-0.415,0.083-0.709-0.041-0.984C45.216,98.947,45.22,98.89,45.226,98.831z"/>
	<path fill-rule="evenodd" fill="#01A79B" d="M32.266,5.412c-0.287-0.21-0.574-0.418-0.858-0.631
		c-0.029-0.022-0.041-0.069-0.111-0.2c0.522,0.099,0.738,0.507,1.076,0.72C32.337,5.338,32.302,5.375,32.266,5.412z"/>
	<path fill-rule="evenodd" fill="#157972" d="M2.519,60.405c-0.083,0-0.166,0.002-0.25,0.004c-0.227-0.288-0.429-0.158-0.625,0.039
		c-0.048-0.033-0.096-0.066-0.145-0.1C1.966,59.597,2.071,59.603,2.519,60.405z"/>
	<path fill-rule="evenodd" fill="#01A79B" d="M69.344,5.849c0.219-0.29,0.132-0.588-0.014-0.915c0.662,0.433,0.672,0.526,0.14,1.03
		C69.429,5.926,69.388,5.888,69.344,5.849z"/>
	<path fill-rule="evenodd" fill="#157972" d="M53.144,98.975c0.405,0.367,0.2,0.606,0.139,0.842
		C53.084,99.589,53.187,99.354,53.144,98.975z"/>
	<path fill-rule="evenodd" fill="#157972" d="M85.75,81.85c0.093,0,0.186,0,0.278,0c0.278,0.206,0.475,0.453,0.495,0.972
		C86.202,82.42,85.977,82.134,85.75,81.85z"/>
	<path fill-rule="evenodd" fill="#01A79B" d="M91.223,24.627c0.5-0.459,0.723,0.104,1.185,0.259
		c-0.472,0.127-0.719-0.307-1.066-0.135C91.301,24.709,91.262,24.668,91.223,24.627z"/>
	<path fill-rule="evenodd" fill="#157972" d="M76.167,9.187c-0.204-0.33-0.182-0.651,0.052-1.069
		c0.039,0.396,0.072,0.695,0.106,0.994C76.271,9.138,76.221,9.162,76.167,9.187z"/>
	<path fill-rule="evenodd" fill="#157972" d="M98.417,62.309c-0.425,0.119-0.735-0.036-0.969-0.39
		c0.042-0.065,0.083-0.132,0.127-0.2c0.205,0.296,0.603,0.335,0.828,0.6L98.417,62.309z"/>
	<path fill-rule="evenodd" fill="#157972" d="M57.764,25.598c-0.067,0.211-0.135,0.422-0.218,0.68
		c-0.255-0.268-0.425-0.487-0.059-0.744C57.58,25.555,57.673,25.577,57.764,25.598z"/>
	<path fill-rule="evenodd" fill="#157972" d="M98.548,39.473c-0.006-0.076-0.014-0.15-0.02-0.225
		c0.28,0.212,0.602,0.016,1.061,0.055C99.155,39.518,98.896,39.766,98.548,39.473z"/>
	<path fill-rule="evenodd" fill="#157972" d="M60.277,97.605c0.091-0.016,0.183-0.031,0.273-0.049
		c0.223,0.151,0.466,0.294,0.407,0.682C60.704,98.003,60.491,97.804,60.277,97.605z"/>
	<path fill-rule="evenodd" fill="#157972" d="M6.733,75.686c-0.244,0.322-0.605,0.113-0.902,0.197l0.008,0.012
		c0.205-0.317,0.564-0.158,0.836-0.268C6.704,75.639,6.723,75.656,6.733,75.686z"/>
	<path fill-rule="evenodd" fill="#157972" d="M0.976,60.891c-0.091,0.337-0.322,0.421-0.675,0.407
		C0.436,60.932,0.77,61.021,0.976,60.891z"/>
	<path fill-rule="evenodd" fill="#157972" d="M3.019,68.024c-0.027,0.286-0.121,0.507-0.535,0.545
		c0.106-0.329,0.351-0.409,0.535-0.543V68.024z"/>
	<path fill-rule="evenodd" fill="#157972" d="M68.638,95.534c0.074,0.002,0.149,0.004,0.224,0.006
		c0.012,0.321-0.046,0.609-0.358,0.787c-0.023-0.029-0.047-0.057-0.068-0.086C68.501,96.006,68.568,95.77,68.638,95.534z"/>
	<path fill-rule="evenodd" fill="#157972" d="M68.503,96.327c-0.131,0.142-0.104,0.411-0.357,0.448
		c-0.034,0.004-0.115-0.08-0.115-0.123c-0.002-0.261,0.22-0.321,0.404-0.411C68.456,96.271,68.479,96.298,68.503,96.327z"/>
	<path fill-rule="evenodd" fill="#157972" d="M71.151,15.88c0.014,0.303,0.006,0.59-0.413,0.602
		C70.907,16.303,70.919,16.018,71.151,15.88z"/>
	<path fill-rule="evenodd" fill="#01A79B" d="M98.732,54.722c0.286,0.114,0.63-0.07,0.89,0.173l-0.01-0.008
		c-0.325,0.029-0.659,0.386-0.97-0.029C98.672,54.811,98.701,54.767,98.732,54.722z"/>
	<path fill-rule="evenodd" fill="#01A79B" d="M81.95,13.425c0.148-0.234,0.058-0.554,0.276-0.763
		c0.029,0.03,0.059,0.059,0.088,0.088c-0.004,0.279,0.077,0.589-0.266,0.752C82.016,13.477,81.981,13.451,81.95,13.425z"/>
	<path fill-rule="evenodd" fill="#157972" d="M99.713,47.397c0.151-0.048,0.227,0.056,0.303,0.146
		c0.002,0.002-0.05,0.075-0.07,0.072C99.819,47.602,99.701,47.567,99.713,47.397z"/>
	<path fill-rule="evenodd" fill="#157972" d="M5.832,75.883c-0.065,0.102-0.121,0.216-0.274,0.208
		c0.034-0.159,0.147-0.194,0.283-0.196L5.832,75.883z"/>
	<path fill-rule="evenodd" fill="#157972" d="M95.705,69.692c-0.155,0.006-0.31,0.01-0.465,0.014
		c-0.047-0.039-0.093-0.076-0.14-0.115c0.237-0.255,0.467-0.215,0.69,0.02C95.762,69.636,95.734,69.665,95.705,69.692z"/>
	<path fill-rule="evenodd" fill="#01A79B" d="M31.058,3.938c0.042,0.11,0.072,0.155,0.072,0.2c0,0.067,0.04,0.171-0.077,0.176
		c-0.036,0.001-0.106-0.078-0.104-0.116C30.954,4.129,31.001,4.064,31.058,3.938z"/>
	<path fill-rule="evenodd" fill="#157972" d="M1.644,60.448c-0.062,0.131-0.154,0.229-0.338,0.304
		C1.262,60.54,1.411,60.458,1.5,60.349C1.548,60.382,1.596,60.415,1.644,60.448z"/>
	<path fill-rule="evenodd" fill="#01A79B" d="M76.167,9.187c0.054-0.025,0.104-0.049,0.158-0.075
		c0.183,0.241,0.129,0.453-0.085,0.644c-0.036-0.031-0.073-0.063-0.108-0.093C76.144,9.504,76.155,9.346,76.167,9.187z"/>
	<path fill-rule="evenodd" fill="#157972" d="M95.791,69.61c0.05,0.09,0.249,0.154,0.108,0.272c-0.059,0.053-0.15-0.1-0.194-0.19
		C95.734,69.665,95.762,69.636,95.791,69.61z"/>
	<path fill-rule="evenodd" fill="#01A79B" d="M84.703,79.23c-0.036,0.055-0.02,0.167-0.127,0.14
		c-0.037-0.007-0.055-0.087-0.08-0.136C84.564,79.234,84.634,79.232,84.703,79.23z"/>
	<path fill-rule="evenodd" fill="#01A79B" d="M45.075,98.858c-0.329-0.176-0.31-0.354-0.008-0.54
		c0.039,0.037,0.077,0.074,0.116,0.111c-0.047,0.106-0.073,0.216-0.02,0.329C45.134,98.792,45.104,98.825,45.075,98.858z"/>
	<path fill-rule="evenodd" fill="#157972" d="M17.757,87.03c0.072,0.006,0.146,0.012,0.219,0.016
		c0.007,0.184-0.091,0.308-0.227,0.411c-0.045-0.033-0.09-0.07-0.135-0.105C17.662,87.245,17.708,87.138,17.757,87.03z"/>
	<path fill-rule="evenodd" fill="#157972" d="M52.627,98.72c0.087,0,0.172-0.002,0.258-0.004c0.027,0.053,0.081,0.146,0.079,0.148
		C52.789,98.969,52.718,98.823,52.627,98.72z"/>
	<path fill-rule="evenodd" fill="#157972" d="M11.529,81.149c0.104-0.066,0.207-0.132,0.311-0.2l-0.01-0.008
		c-0.07,0.103-0.139,0.208-0.208,0.313C11.591,81.22,11.559,81.185,11.529,81.149z"/>
	<path fill-rule="evenodd" fill="#01A79B" d="M82.227,12.663c0.07-0.053,0.133-0.199,0.228-0.065
		c0.048,0.063-0.055,0.132-0.14,0.154C82.285,12.722,82.256,12.692,82.227,12.663z"/>
	<path fill-rule="evenodd" fill="#157972" d="M17.507,87.604c-0.109,0.064-0.261,0.134-0.323,0.012
		c-0.041-0.086,0.134-0.113,0.225-0.145C17.443,87.516,17.474,87.559,17.507,87.604z"/>
	<path fill-rule="evenodd" fill="#01A79B" d="M12.229,80.711c0.042-0.029,0.085-0.057,0.128-0.084
		c0.004,0.02,0.008,0.037,0.012,0.057c-0.052,0.006-0.103,0.01-0.154,0.014L12.229,80.711z"/>
	<path fill-rule="evenodd" fill="#157972" d="M11.291,81.308c0.08-0.053,0.159-0.105,0.238-0.158c0.03,0.035,0.062,0.07,0.093,0.105
		c-0.082,0.061-0.164,0.121-0.245,0.18C11.348,81.392,11.319,81.351,11.291,81.308z"/>
	<path fill-rule="evenodd" fill="#157972" d="M94.98,32.664c-0.008-0.089-0.015-0.178-0.022-0.268
		c-0.004-0.031,0.008-0.057,0.036-0.076c0.043,0.036,0.087,0.071,0.132,0.106C95.077,32.506,95.029,32.586,94.98,32.664z"/>
	<path fill-rule="evenodd" fill="#157972" d="M17.749,87.457c-0.082,0.049-0.161,0.098-0.242,0.146
		c-0.033-0.045-0.064-0.088-0.098-0.133c0.068-0.039,0.137-0.08,0.205-0.119C17.659,87.387,17.704,87.424,17.749,87.457z"/>
	<path fill-rule="evenodd" fill="#157972" d="M26.227,37.633c-0.067-0.045-0.134-0.091-0.202-0.137
		C26.093,37.542,26.16,37.588,26.227,37.633z"/>
	<path fill-rule="evenodd" fill="#01A79B" d="M99.622,54.895c-0.014,0.01-0.042,0.023-0.04,0.027
		c0.019,0.055,0.044,0.057,0.065,0.004c0.002-0.008-0.023-0.025-0.037-0.039C99.612,54.887,99.622,54.895,99.622,54.895z"/>
	<path fill-rule="evenodd" fill="#157972" d="M98.403,62.318c0.014,0.014,0.03,0.027,0.044,0.041
		c-0.012-0.018-0.022-0.033-0.03-0.051L98.403,62.318z"/>
	<path fill-rule="evenodd" fill="#157972" d="M60.655,98.565c-0.006,0.014-0.014,0.027-0.02,0.043
		c-0.017-0.02-0.032-0.039-0.046-0.061c0.012-0.008,0.029-0.022,0.037-0.019C60.642,98.532,60.647,98.552,60.655,98.565z"/>
	<path fill-rule="evenodd" fill="#01A79B" d="M55.324,0.822c0.012-0.035,0.025-0.07,0.039-0.106
		c0.076,0.083-0.002,0.082-0.051,0.094L55.324,0.822z"/>
	<path fill-rule="evenodd" fill="#157972" d="M61.458,26.502c-0.103,0.041-0.116-0.016-0.11-0.099
		C61.385,26.437,61.423,26.469,61.458,26.502z"/>
	<path fill-rule="evenodd" fill="#01A79B" d="M6.676,75.627c0.027-0.006,0.054-0.015,0.082-0.022
		c-0.008,0.026-0.017,0.052-0.024,0.081C6.723,75.656,6.704,75.639,6.676,75.627z"/>
	<path fill-rule="evenodd" fill="#01A79B" d="M7.768,24.125c-0.016,0.007-0.032,0.013-0.047,0.019c0.012,0,0.024-0.001,0.037-0.003
		C7.758,24.141,7.768,24.125,7.768,24.125z"/>
	<path fill-rule="evenodd" fill="#01A79B" d="M62.235,2.088c-0.004-0.003-0.012-0.006-0.016-0.009L62.235,2.088z"/>
	<path fill-rule="evenodd" fill="#157972" d="M38.949,1.956c0.008-0.009,0.017-0.019,0.026-0.029
		c-0.012,0.007-0.022,0.014-0.033,0.021C38.941,1.947,38.949,1.956,38.949,1.956z"/>
	<path fill-rule="evenodd" fill="#01A79B" d="M0.245,53.608c-0.036,0.045-0.077,0.09-0.123,0.016
		c-0.008-0.012,0.035-0.053,0.055-0.08C0.2,53.565,0.223,53.587,0.245,53.608z"/>
	<path fill-rule="evenodd" fill="#01A79B" d="M12.215,80.697c-0.013,0.025-0.024,0.047-0.038,0.07c0-0.014-0.006-0.033,0-0.039
		c0.014-0.01,0.033-0.012,0.051-0.018L12.215,80.697z"/>
	<path fill-rule="evenodd" fill="#01A79B" d="M11.84,80.949c0.014-0.014,0.027-0.027,0.041-0.043
		c-0.017,0.012-0.034,0.023-0.051,0.035L11.84,80.949z"/>
	<path fill-rule="evenodd" fill="#157972" d="M97.448,61.905c-0.006-0.087-0.012-0.175-0.019-0.263
		c0.049,0.027,0.096,0.051,0.146,0.076c-0.044,0.068-0.085,0.135-0.127,0.2V61.905z"/>
	<path fill-rule="evenodd" fill="#157972" d="M11.377,81.435c-0.051-0.012-0.103-0.023-0.152-0.033
		c0.022-0.031,0.043-0.063,0.066-0.094C11.319,81.351,11.348,81.392,11.377,81.435z"/>
	<path fill-rule="evenodd" fill="#157972" d="M10.911,81.563c0.037-0.016,0.072-0.031,0.108-0.047
		c-0.001,0.053-0.004,0.105-0.005,0.16C10.979,81.637,10.945,81.6,10.911,81.563z"/>
	<path fill-rule="evenodd" fill="#157972" d="M11.014,81.676c-0.033,0.037-0.064,0.076-0.097,0.115
		c-0.045-0.035-0.09-0.07-0.135-0.105c0.043-0.041,0.086-0.082,0.129-0.123C10.945,81.6,10.979,81.637,11.014,81.676z"/>
	<path fill-rule="evenodd" fill="#01A79B" d="M98.643,54.857c-0.063-0.051-0.116-0.108-0.054-0.185
		c0.012-0.014,0.095,0.031,0.144,0.049C98.701,54.767,98.672,54.811,98.643,54.857z"/>
	<path fill-rule="evenodd" fill="#01A79B" d="M82.049,13.503c-0.039,0.019-0.081,0.038-0.118,0.057
		c0.006-0.045,0.014-0.09,0.02-0.135C81.981,13.451,82.016,13.477,82.049,13.503z"/>
	<path fill-rule="evenodd" fill="#01A79B" d="M3.019,68.026c0.011-0.016,0.021-0.033,0.033-0.049
		c-0.011,0.016-0.022,0.031-0.033,0.047V68.026z"/>
	<polygon fill-rule="evenodd" fill="#01A79B" points="0.017,46.171 0,46.126 0.043,46.131 	"/>
	<path fill-rule="evenodd" fill="#01A79B" d="M30.958,95.366c-0.046-0.004-0.092-0.008-0.138-0.012
		c0.02-0.023,0.041-0.047,0.061-0.072C30.908,95.31,30.932,95.339,30.958,95.366z"/>
	<path fill-rule="evenodd" fill="#157972" d="M95.142,69.842c-0.012-0.075-0.025-0.149-0.037-0.226l-0.004-0.025
		c0.047,0.039,0.093,0.076,0.14,0.115C95.209,69.753,95.174,69.797,95.142,69.842z"/>
	<path fill-rule="evenodd" fill="#157972" d="M2.413,37.973c-0.003-0.052-0.007-0.104-0.011-0.155
		c0.034,0.006,0.068,0.011,0.102,0.018C2.474,37.881,2.443,37.927,2.413,37.973z"/>
	<path fill-rule="evenodd" fill="#157972" d="M0.715,37.837c0,0,0.007,0.006,0.007,0.007L0.715,37.837z"/>
	<path fill-rule="evenodd" fill="#01A79B" d="M45.226,98.831c-0.006,0.059-0.01,0.116-0.015,0.175
		c-0.046-0.049-0.091-0.099-0.136-0.147c0.03-0.033,0.059-0.066,0.087-0.1C45.189,98.778,45.21,98.802,45.226,98.831z"/>
	<path fill-rule="evenodd" fill="#323434" d="M22.972,46.46c0.191,0.082,0.362,0.213,0.581,0.248
		c-0.314,0.342-0.476,0.029-0.664-0.172C22.917,46.511,22.944,46.485,22.972,46.46z"/>
	<path fill-rule="evenodd" fill="#323434" d="M24.662,57.8c0.083-0.208,0.154-0.431,0.5-0.456c-0.052,0.277-0.233,0.405-0.393,0.548
		C24.733,57.862,24.699,57.831,24.662,57.8z"/>
	<path fill-rule="evenodd" fill="#323434" d="M35.113,28.839c-0.202-0.154-0.212-0.395-0.283-0.609
		c0.032-0.039,0.063-0.078,0.093-0.116c0.238,0.167,0.254,0.408,0.222,0.665C35.134,28.799,35.124,28.819,35.113,28.839z"/>
	<path fill-rule="evenodd" fill="#323434" d="M67.46,68.892c0.032,0.062,0.065,0.13,0.098,0.198
		c-0.034,0.01-0.081,0.037-0.105,0.025c-0.076-0.035-0.149-0.09-0.124-0.188C67.334,68.911,67.396,68.909,67.46,68.892z"/>
	<path fill-rule="evenodd" fill="#157972" d="M26.884,38.272c-0.083-0.081-0.167-0.162-0.246-0.248
		c-0.006-0.006,0.035-0.082,0.054-0.083c0.169-0.003,0.25,0.101,0.29,0.25C26.95,38.217,26.917,38.245,26.884,38.272z"/>
	<path fill-rule="evenodd" fill="#323434" d="M37.195,73.618c-0.033-0.114-0.072-0.175-0.055-0.21
		c0.033-0.068,0.097-0.121,0.148-0.182c0.022,0.047,0.071,0.102,0.06,0.139C37.326,73.438,37.271,73.5,37.195,73.618z"/>
	<path fill-rule="evenodd" fill="#323434" d="M53.365,75.524c-0.046,0.029-0.095,0.061-0.14,0.091
		c-0.018-0.034-0.053-0.071-0.051-0.104c0.006-0.064,0.043-0.127,0.121-0.102C53.323,75.419,53.336,75.472,53.365,75.524z"/>
	<path fill-rule="evenodd" fill="#323434" d="M57.052,75.717c0.052-0.07,0.077-0.229,0.182-0.153
		c0.081,0.058-0.012,0.169-0.108,0.214C57.104,75.758,57.078,75.738,57.052,75.717z"/>
	<path fill-rule="evenodd" fill="#323434" d="M25.263,41.397c0.096-0.007,0.201-0.04,0.257,0.079
		c0.003,0.006-0.023,0.037-0.039,0.04c-0.107,0.019-0.206,0.019-0.208-0.13L25.263,41.397z"/>
	<path fill-rule="evenodd" fill="#323434" d="M65.568,71.779c0.016,0.035,0.039,0.082,0.061,0.128
		c-0.043,0.016-0.091,0.043-0.134,0.041c-0.021,0-0.061-0.055-0.063-0.085C65.431,71.797,65.472,71.76,65.568,71.779z"/>
	<path fill-rule="evenodd" fill="#323434" d="M35.614,29.023c-0.034,0.019-0.065,0.048-0.095,0.049
		c-0.032,0-0.063-0.029-0.094-0.045c0.03-0.019,0.06-0.049,0.09-0.05C35.546,28.976,35.578,29.005,35.614,29.023z"/>
	<path fill-rule="evenodd" fill="#323434" d="M49.289,77.05c-0.096-0.045-0.167-0.104-0.081-0.21
		c0.004-0.004,0.114,0.073,0.173,0.112C49.35,76.985,49.32,77.017,49.289,77.05z"/>
	<polygon fill-rule="evenodd" fill="#323434" points="54.158,24.479 54.16,24.435 54.208,24.457 	"/>
	<path fill-rule="evenodd" fill="#323434" d="M71.185,35.446c-0.025,0.024-0.049,0.048-0.075,0.072
		c-0.078-0.095,0.015-0.076,0.062-0.087L71.185,35.446z"/>
	<path fill-rule="evenodd" fill="#323434" d="M23.536,54.778c0.051-0.033,0.07-0.168,0.162-0.053c0.01,0.012-0.05,0.079-0.078,0.122
		C23.592,54.824,23.563,54.801,23.536,54.778z"/>
	<path fill-rule="evenodd" fill="#323434" d="M71.604,66.582c-0.036-0.051-0.156-0.084-0.085-0.161
		c0.055-0.059,0.142-0.02,0.188,0.056C71.673,66.512,71.638,66.547,71.604,66.582z"/>
	<path fill-rule="evenodd" fill="#323434" d="M49.381,76.952c0.066,0.063,0.13,0.125,0.196,0.188
		c-0.036,0.037-0.073,0.072-0.109,0.109c-0.06-0.066-0.119-0.133-0.179-0.199C49.32,77.017,49.35,76.985,49.381,76.952z"/>
	<path fill-rule="evenodd" fill="#323434" d="M34.74,28.067c0.062,0.015,0.122,0.031,0.183,0.046
		c-0.03,0.039-0.062,0.078-0.093,0.116c-0.054-0.029-0.109-0.06-0.164-0.089C34.691,28.117,34.715,28.092,34.74,28.067z"/>
	<path fill-rule="evenodd" fill="#323434" d="M49.603,24.956c0.001,0.017,0.002,0.032,0.003,0.047
		c0.016-0.015,0.031-0.03,0.046-0.045c-0.014-0.002-0.029-0.004-0.043-0.006L49.603,24.956z"/>
	<path fill-rule="evenodd" fill="#323434" d="M49.609,24.951c0.021-0.022,0.039-0.044,0.058-0.066
		c-0.02,0.022-0.041,0.045-0.063,0.069C49.603,24.956,49.609,24.951,49.609,24.951z"/>
	<polygon fill-rule="evenodd" fill="#323434" points="75.655,54.826 75.621,54.828 75.644,54.838 	"/>
	<path fill-rule="evenodd" fill="#323434" d="M46.302,23.458c-0.05,0.034-0.106,0.084-0.149,0c-0.008-0.017,0.039-0.062,0.06-0.094
		C46.244,23.395,46.272,23.427,46.302,23.458z"/>
	<path fill-rule="evenodd" fill="#323434" d="M77.072,50.733c-0.006,0.015-0.012,0.029-0.02,0.045
		c0.004-0.008,0.01-0.016,0.016-0.025C77.068,50.75,77.072,50.733,77.072,50.733z"/>
	<path fill-rule="evenodd" fill="#323434" d="M75.692,55.029c-0.012-0.066-0.025-0.135-0.037-0.203l-0.012,0.012
		c0.053,0.033,0.104,0.066,0.155,0.1C75.764,54.969,75.728,54.998,75.692,55.029z"/>
	<path fill-rule="evenodd" fill="#157972" d="M26.983,38.191c0.07,0.149-0.022,0.105-0.099,0.081
		C26.917,38.245,26.95,38.217,26.983,38.191z"/>
	<polygon fill-rule="evenodd" fill="#323434" points="61.78,72.905 61.757,72.876 61.791,72.894 	"/>
	<path fill-rule="evenodd" fill="#323434" d="M35.145,28.778c0.07,0.017,0.087,0.058,0.054,0.121
		c-0.029-0.021-0.058-0.041-0.086-0.06C35.124,28.819,35.134,28.799,35.145,28.778z"/>
	<path fill-rule="evenodd" fill="#323434" d="M36.758,73.843c0.047-0.021,0.095-0.041,0.142-0.061
		c-0.009,0.049-0.017,0.098-0.025,0.146C36.836,73.899,36.798,73.872,36.758,73.843z"/>
</g>
</svg>
